<svg xmlns="http://www.w3.org/2000/svg" width="200" height="35" viewBox="0 0 200 35"><g fill="#212121"><path d="M11.986 21.682H7.06L6.037 24.96H2.854L7.98 9.762h3.12l5.104 15.196H13.02l-1.034-3.278zm-4.174-2.39h3.434l-1.68-5.354h-.064l-1.69 5.354z"/><path d="M20.722 13.667v11.71c0 1.32-.352 2.343-1.054 3.062-.703.72-1.68 1.08-2.933 1.08-.278 0-.532-.015-.762-.042a6.29 6.29 0 0 1-.73-.136l.145-2.328c.16.042.32.073.48.095.16.02.33.03.51.03.412 0 .728-.145.95-.434s.335-.732.335-1.33v-11.71h3.06zm-.063-2.725H17.6V8.678h3.06v2.264zM30.02 23.29c-.347.604-.79 1.07-1.324 1.397-.536.327-1.16.49-1.868.49-1.19 0-2.12-.403-2.792-1.21-.67-.808-1.007-2.06-1.007-3.758v-6.544h3.036v6.565c0 .988.134 1.665.402 2.03.268.365.684.548 1.247.548.487 0 .905-.078 1.252-.234a2.11 2.11 0 0 0 .856-.694v-8.213h3.048V24.96h-2.525l-.324-1.67zM34.696 19.406c0-1.78.384-3.218 1.153-4.31.768-1.092 1.852-1.64 3.25-1.64.563 0 1.07.123 1.524.366.452.244.85.592 1.19 1.044V8.678h3.058v16.28h-2.6l-.26-1.387c-.355.522-.776.92-1.263 1.195-.488.275-1.044.412-1.67.412-1.385 0-2.462-.508-3.23-1.523-.77-1.016-1.154-2.358-1.154-4.028v-.22zm3.037.22c0 .988.167 1.766.5 2.332.335.567.878.85 1.63.85.437 0 .82-.087 1.147-.265.327-.178.595-.437.804-.777v-4.812a2.35 2.35 0 0 0-.8-.83 2.124 2.124 0 0 0-1.13-.297c-.746 0-1.29.33-1.634.992s-.517 1.522-.517 2.587v.22zM53.89 24.96a6.448 6.448 0 0 1-.287-.815 5.678 5.678 0 0 1-.172-.876 4.173 4.173 0 0 1-1.24 1.366c-.516.36-1.128.542-1.838.542-1.183 0-2.094-.304-2.734-.913-.64-.608-.96-1.438-.96-2.49 0-1.104.426-1.962 1.28-2.57.85-.61 2.095-.914 3.73-.914h1.712v-.897c0-.542-.143-.963-.428-1.263-.285-.3-.71-.45-1.273-.45-.495 0-.876.12-1.144.36-.268.24-.402.57-.402.987H47.2l-.02-.063c-.05-.953.366-1.776 1.246-2.468s2.03-1.04 3.45-1.04c1.356 0 2.454.342 3.292 1.024.838.682 1.258 1.66 1.258 2.933v4.665c0 .53.04 1.026.12 1.493.08.467.207.93.38 1.39H53.89zm-2.787-2.036c.53 0 1.002-.132 1.42-.396s.702-.57.855-.92v-1.596h-1.712c-.647 0-1.136.16-1.466.48s-.496.713-.496 1.18c0 .382.124.687.37.913.248.226.59.34 1.03.34z"/></g></svg>