<svg xmlns="http://www.w3.org/2000/svg" width="200" height="35" viewBox="0 0 200 35"><g fill="#212121"><path d="M4.064 24.96V9.762h4.98c1.787 0 3.182.35 4.184 1.05s1.503 1.737 1.503 3.114c0 .696-.18 1.32-.542 1.868-.362.55-.89.964-1.586 1.242.946.174 1.66.584 2.14 1.23.48.648.72 1.403.72 2.267 0 1.454-.48 2.555-1.44 3.303-.96.748-2.32 1.122-4.082 1.122H4.064zm3.048-8.83h2.035c.814 0 1.44-.168 1.878-.502s.658-.82.658-1.46c0-.704-.22-1.222-.663-1.556s-1.1-.5-1.978-.5h-1.93v4.017zm0 2.107v4.384H9.94c.807 0 1.423-.175 1.847-.526.424-.35.637-.87.637-1.56 0-.738-.208-1.305-.626-1.7-.417-.398-1.047-.597-1.89-.597H7.113zM24.375 23.29c-.348.604-.79 1.07-1.325 1.397-.536.327-1.16.49-1.868.49-1.19 0-2.12-.403-2.792-1.21-.67-.808-1.007-2.06-1.007-3.758v-6.544h3.037v6.565c0 .988.134 1.665.402 2.03.268.365.684.548 1.247.548.486 0 .904-.078 1.25-.234a2.11 2.11 0 0 0 .857-.694v-8.213h3.048V24.96H24.7l-.325-1.67zM35.625 21.828c0-.334-.162-.62-.485-.86-.323-.24-.924-.45-1.8-.632-1.322-.265-2.326-.665-3.01-1.2-.686-.536-1.03-1.263-1.03-2.182 0-.967.412-1.792 1.232-2.474.82-.682 1.914-1.023 3.277-1.023 1.425 0 2.568.34 3.427 1.023.86.682 1.27 1.53 1.237 2.546l-.02.063H35.51c0-.454-.146-.822-.438-1.107-.292-.285-.713-.428-1.263-.428-.488 0-.875.122-1.16.365s-.428.542-.428.897c0 .348.148.63.443.85.296.22.896.417 1.8.59 1.385.28 2.417.688 3.095 1.228.678.54 1.018 1.28 1.018 2.228 0 1.017-.435 1.848-1.305 2.495-.87.646-2.018.97-3.444.97-1.504 0-2.692-.38-3.565-1.143s-1.29-1.63-1.247-2.604l.02-.062h2.788c.02.604.22 1.043.595 1.314.377.27.867.407 1.473.407.563 0 .993-.114 1.29-.34.295-.225.442-.532.442-.922zM45.258 22.84c.53 0 .95-.157 1.263-.475.314-.316.47-.74.47-1.268h2.776l.02.063c.03 1.14-.395 2.096-1.272 2.864-.876.77-1.962 1.153-3.256 1.153-1.67 0-2.96-.533-3.872-1.602s-1.367-2.434-1.367-4.097v-.313c0-1.656.453-3.022 1.36-4.097.91-1.075 2.194-1.613 3.857-1.613 1.378 0 2.488.396 3.33 1.19.842.793 1.25 1.837 1.22 3.13l-.02.064H46.99c0-.585-.154-1.07-.463-1.457s-.74-.58-1.29-.58c-.785 0-1.343.315-1.674.945s-.496 1.435-.496 2.417v.313c0 1.002.165 1.813.496 2.432.33.62.895.93 1.695.93zM58.22 24.96a6.448 6.448 0 0 1-.286-.815 5.678 5.678 0 0 1-.172-.876 4.173 4.173 0 0 1-1.242 1.366c-.515.36-1.127.542-1.837.542-1.183 0-2.094-.304-2.734-.913-.64-.608-.96-1.438-.96-2.49 0-1.104.425-1.962 1.278-2.57.852-.61 2.096-.914 3.73-.914h1.713v-.897c0-.542-.142-.963-.427-1.263-.285-.3-.71-.45-1.273-.45-.494 0-.875.12-1.143.36s-.402.57-.402.987h-2.933l-.02-.063c-.05-.953.366-1.776 1.246-2.468s2.03-1.04 3.45-1.04c1.356 0 2.454.342 3.292 1.024.838.682 1.258 1.66 1.258 2.933v4.665c0 .53.04 1.026.12 1.493.08.467.207.93.38 1.39h-3.037zm-2.785-2.036c.53 0 1.002-.132 1.42-.396s.702-.57.855-.92v-1.596h-1.712c-.647 0-1.136.16-1.466.48s-.496.713-.496 1.18c0 .382.124.687.37.913.247.226.59.34 1.03.34z"/></g></svg>