<svg xmlns="http://www.w3.org/2000/svg" width="200" height="35" viewBox="0 0 200 35"><g fill="#212121"><path d="M15.46 19.93l.022.062c.028 1.62-.466 2.89-1.482 3.81-1.016.918-2.418 1.377-4.206 1.377-1.823 0-3.295-.587-4.415-1.76-1.12-1.172-1.68-2.687-1.68-4.545V15.86c0-1.852.545-3.367 1.638-4.546 1.092-1.18 2.526-1.77 4.3-1.77 1.85 0 3.298.453 4.342 1.358 1.043.904 1.55 2.178 1.524 3.82l-.02.063h-2.965c0-.974-.236-1.7-.706-2.176s-1.195-.716-2.176-.716c-.912 0-1.623.367-2.134 1.1-.51.735-.767 1.683-.767 2.845v3.036c0 1.17.27 2.123.81 2.86.538.737 1.288 1.105 2.248 1.105.91 0 1.59-.236 2.04-.714.45-.477.674-1.208.674-2.196h2.95zM16.964 19.208c0-1.684.47-3.063 1.41-4.138.938-1.075 2.24-1.613 3.902-1.613 1.67 0 2.978.536 3.924 1.607.946 1.072 1.42 2.453 1.42 4.143v.22c0 1.697-.472 3.08-1.415 4.148s-2.246 1.602-3.91 1.602c-1.668 0-2.975-.533-3.918-1.602s-1.414-2.45-1.414-4.148v-.22zm3.037.22c0 1.03.182 1.855.544 2.48.36.622.946.933 1.753.933.787 0 1.362-.312 1.728-.937.365-.627.548-1.45.548-2.474v-.22c0-1.003-.185-1.82-.553-2.453-.37-.633-.95-.95-1.743-.95-.787 0-1.362.318-1.728.955S20 18.215 20 19.21v.218zM32.703 24.96h-3.047V8.677h3.047v16.28zM40.103 25.178c-1.684 0-3-.517-3.945-1.55s-1.42-2.363-1.42-3.992v-.417c0-1.692.46-3.076 1.38-4.155.917-1.08 2.18-1.614 3.787-1.607 1.517 0 2.68.464 3.49 1.394.812.93 1.217 2.18 1.217 3.75v1.577H37.88l-.03.062c.047.772.282 1.398.703 1.88s1.045.72 1.874.72c.682 0 1.26-.07 1.738-.21.477-.14.97-.35 1.477-.636l.824 1.88c-.452.367-1.064.677-1.837.928a8.198 8.198 0 0 1-2.527.374zm-.2-9.372c-.61 0-1.082.21-1.413.63s-.53.98-.6 1.676l.02.053h3.716v-.23c0-.66-.136-1.18-.407-1.56-.272-.38-.71-.57-1.316-.57zM51.103 22.84c.53 0 .95-.157 1.263-.475.313-.316.47-.74.47-1.268h2.775l.022.063c.028 1.14-.396 2.096-1.273 2.864-.877.77-1.963 1.153-3.257 1.153-1.67 0-2.96-.533-3.872-1.602s-1.366-2.434-1.366-4.097v-.313c0-1.656.454-3.022 1.362-4.097.908-1.075 2.193-1.613 3.856-1.613 1.378 0 2.488.396 3.33 1.19.842.793 1.25 1.837 1.22 3.13l-.02.064h-2.776c0-.585-.155-1.07-.464-1.457s-.74-.58-1.29-.58c-.785 0-1.343.315-1.674.945s-.496 1.435-.496 2.417v.313c0 1.002.165 1.813.496 2.432.33.62.895.93 1.695.93zm1.075 2.077l-.115.595a2.1 2.1 0 0 1 1.117.543c.3.285.45.706.45 1.263 0 .745-.32 1.34-.956 1.785s-1.54.668-2.708.668l-.073-1.68c.355 0 .637-.07.845-.214.21-.143.313-.36.313-.652 0-.285-.11-.485-.333-.6-.223-.115-.605-.19-1.148-.225l.323-1.483h2.285zM64.065 24.96a6.448 6.448 0 0 1-.287-.815 5.678 5.678 0 0 1-.172-.876 4.173 4.173 0 0 1-1.242 1.366c-.515.36-1.127.542-1.837.542-1.183 0-2.094-.304-2.734-.913-.64-.608-.96-1.438-.96-2.49 0-1.104.426-1.962 1.28-2.57.85-.61 2.095-.914 3.73-.914h1.712v-.897c0-.542-.143-.963-.428-1.263-.285-.3-.71-.45-1.273-.45-.494 0-.875.12-1.143.36-.267.24-.4.57-.4.987h-2.934l-.02-.063c-.05-.953.366-1.776 1.246-2.468s2.03-1.04 3.45-1.04c1.356 0 2.454.342 3.292 1.024.838.682 1.258 1.66 1.258 2.933v4.665c0 .53.04 1.026.12 1.493.08.467.207.93.38 1.39h-3.037zM65.84 8.95c0 .667-.208 1.236-.62 1.706-.415.47-.94.705-1.572.705-.487 0-1.04-.15-1.654-.453s-1.104-.454-1.466-.454c-.25 0-.46.113-.626.34s-.25.495-.25.808l-1.628-.437c0-.654.207-1.223.62-1.707.415-.483.935-.725 1.56-.725.39 0 .92.152 1.587.455.67.303 1.184.454 1.546.454.236 0 .445-.112.626-.335s.27-.497.27-.824l1.608.47zm-4.56 13.974c.528 0 1-.132 1.418-.396s.703-.57.856-.92v-1.596h-1.712c-.647 0-1.136.16-1.466.48s-.496.713-.496 1.18c0 .382.124.687.37.913.248.226.59.34 1.03.34zM68.417 19.208c0-1.684.47-3.063 1.41-4.138.938-1.075 2.24-1.613 3.902-1.613 1.67 0 2.977.536 3.923 1.607.946 1.072 1.42 2.453 1.42 4.143v.22c0 1.697-.472 3.08-1.415 4.148s-2.246 1.602-3.91 1.602c-1.668 0-2.975-.533-3.918-1.602s-1.414-2.45-1.414-4.148v-.22zm3.038.22c0 1.03.18 1.855.543 2.48.36.622.946.933 1.753.933.788 0 1.363-.312 1.73-.937.364-.627.547-1.45.547-2.474v-.22c0-1.003-.185-1.82-.553-2.453-.37-.633-.95-.95-1.743-.95-.786 0-1.36.318-1.727.955s-.548 1.453-.548 2.447v.218z"/></g></svg>