<svg xmlns="http://www.w3.org/2000/svg" width="200" height="35" viewBox="0 0 200 35"><g fill="#212121"><path d="M15.46 19.93l.022.062c.028 1.62-.466 2.89-1.482 3.81-1.016.918-2.418 1.377-4.206 1.377-1.823 0-3.295-.587-4.415-1.76-1.12-1.172-1.68-2.687-1.68-4.545V15.86c0-1.852.545-3.367 1.638-4.546 1.092-1.18 2.526-1.77 4.3-1.77 1.85 0 3.298.453 4.342 1.358 1.043.904 1.55 2.178 1.524 3.82l-.02.063h-2.965c0-.974-.236-1.7-.706-2.176s-1.195-.716-2.176-.716c-.912 0-1.623.367-2.134 1.1-.51.735-.767 1.683-.767 2.845v3.036c0 1.17.27 2.123.81 2.86.538.737 1.288 1.105 2.248 1.105.91 0 1.59-.236 2.04-.714.45-.477.674-1.208.674-2.196h2.95zM16.964 19.208c0-1.684.47-3.063 1.41-4.138.938-1.075 2.24-1.613 3.902-1.613 1.67 0 2.978.536 3.924 1.607.946 1.072 1.42 2.453 1.42 4.143v.22c0 1.697-.472 3.08-1.415 4.148s-2.246 1.602-3.91 1.602c-1.668 0-2.975-.533-3.918-1.602s-1.414-2.45-1.414-4.148v-.22zm3.037.22c0 1.03.182 1.855.544 2.48.36.622.946.933 1.753.933.787 0 1.362-.312 1.728-.937.365-.627.548-1.45.548-2.474v-.22c0-1.003-.185-1.82-.553-2.453-.37-.633-.95-.95-1.743-.95-.787 0-1.362.318-1.728.955S20 18.215 20 19.21v.218zM32.286 13.667l.136 1.618a4.127 4.127 0 0 1 1.388-1.347 3.6 3.6 0 0 1 1.847-.48c1.14 0 2.032.367 2.672 1.1.64.735.96 1.896.96 3.48v6.92h-3.06V18.05c0-.807-.14-1.38-.422-1.717s-.705-.506-1.268-.506c-.453 0-.85.085-1.195.256a2.33 2.33 0 0 0-.85.705v8.172h-3.048V13.667h2.84zM42.284 24.96v-9.154h-1.68v-2.14h1.68v-.772c0-1.42.433-2.514 1.3-3.282.865-.77 2.084-1.153 3.657-1.153.543 0 1.08.053 1.608.16s1.14.264 1.837.465l-.438 2.4c-.508-.153-.97-.27-1.383-.354s-.89-.124-1.424-.124c-.703 0-1.23.16-1.58.48-.353.32-.528.79-.528 1.41v.77h2.223v2.14h-2.223v9.154h-3.048zm9.81 0h-3.047V13.666h3.048V24.96zM60.538 16.286l-1.117-.03c-.45 0-.824.093-1.116.28a1.787 1.787 0 0 0-.668.794v7.63H54.6V13.666h2.828l.136 1.67c.265-.59.607-1.052 1.028-1.383a2.29 2.29 0 0 1 1.456-.496c.153 0 .294.012.423.037s.26.054.393.09l-.325 2.7zM64.953 13.667l.125 1.492c.362-.543.815-.962 1.362-1.258s1.178-.444 1.895-.444c.724 0 1.343.16 1.857.48.515.32.905.804 1.17 1.45.347-.604.8-1.078 1.356-1.418s1.21-.512 1.962-.512c1.113 0 1.99.395 2.635 1.185.643.79.965 1.995.965 3.617v6.7h-3.048v-6.71c0-.905-.14-1.535-.417-1.89-.278-.354-.692-.532-1.242-.532-.432 0-.806.096-1.122.287-.316.19-.568.458-.756.798 0 .132.003.246.01.34.008.093.01.188.01.286v7.42H68.68v-6.712c0-.883-.14-1.508-.417-1.874-.277-.365-.695-.548-1.25-.548-.412 0-.772.08-1.08.235-.31.158-.566.378-.768.664v8.235h-3.037V13.666h2.828zM87.277 24.96a6.448 6.448 0 0 1-.287-.815 5.678 5.678 0 0 1-.172-.876 4.173 4.173 0 0 1-1.242 1.366c-.515.36-1.127.542-1.837.542-1.184 0-2.095-.304-2.735-.913-.64-.608-.96-1.438-.96-2.49 0-1.104.426-1.962 1.28-2.57.85-.61 2.095-.914 3.73-.914h1.712v-.897c0-.542-.143-.963-.428-1.263-.286-.3-.71-.45-1.274-.45-.494 0-.875.12-1.143.36s-.402.57-.402.987H80.59l-.02-.063c-.05-.953.366-1.776 1.246-2.468s2.03-1.04 3.45-1.04c1.356 0 2.454.342 3.292 1.024.838.682 1.258 1.66 1.258 2.933v4.665c0 .53.04 1.026.12 1.493.08.467.207.93.38 1.39h-3.037zm-2.787-2.036c.53 0 1.002-.132 1.42-.396s.702-.57.855-.92v-1.596h-1.712c-.647 0-1.136.16-1.466.48s-.496.713-.496 1.18c0 .382.125.687.372.913.247.226.59.34 1.028.34zM96.816 22.84c.53 0 .95-.157 1.263-.475.312-.316.468-.74.468-1.268h2.777l.02.063c.028 1.14-.395 2.096-1.272 2.864-.876.77-1.962 1.153-3.256 1.153-1.67 0-2.96-.533-3.872-1.602s-1.367-2.434-1.367-4.097v-.313c0-1.656.454-3.022 1.362-4.097.908-1.075 2.193-1.613 3.856-1.613 1.378 0 2.488.396 3.33 1.19.842.793 1.25 1.837 1.22 3.13l-.02.064H98.55c0-.585-.156-1.07-.465-1.457s-.74-.58-1.29-.58c-.785 0-1.343.315-1.674.945s-.495 1.435-.495 2.417v.313c0 1.002.165 1.813.496 2.432.33.62.896.93 1.696.93zm1.075 2.077l-.114.595a2.1 2.1 0 0 1 1.117.543c.3.285.45.706.45 1.263 0 .745-.32 1.34-.956 1.785s-1.54.668-2.708.668l-.074-1.68c.355 0 .637-.07.845-.214.21-.143.314-.36.314-.652 0-.285-.11-.485-.334-.6-.223-.115-.605-.19-1.148-.225l.324-1.483h2.285zM109.778 24.96a6.292 6.292 0 0 1-.286-.815 5.68 5.68 0 0 1-.173-.876 4.173 4.173 0 0 1-1.243 1.366c-.515.36-1.127.542-1.837.542-1.183 0-2.094-.304-2.734-.913-.64-.608-.96-1.438-.96-2.49 0-1.104.427-1.962 1.278-2.57.853-.61 2.097-.914 3.73-.914h1.713v-.897c0-.542-.143-.963-.428-1.263-.287-.3-.71-.45-1.274-.45-.494 0-.875.12-1.144.36-.268.24-.4.57-.4.987h-2.934l-.02-.063c-.05-.953.365-1.776 1.246-2.468.88-.692 2.03-1.04 3.45-1.04 1.355 0 2.453.342 3.292 1.024.838.682 1.257 1.66 1.257 2.933v4.665c0 .53.04 1.026.12 1.493.08.467.207.93.38 1.39h-3.035zm1.775-16.01c0 .667-.207 1.236-.62 1.706s-.94.705-1.57.705c-.488 0-1.04-.15-1.655-.453s-1.104-.454-1.467-.454c-.25 0-.458.113-.625.34s-.25.495-.25.808l-1.628-.437c0-.654.206-1.223.62-1.707.414-.483.935-.725 1.56-.725.39 0 .92.152 1.588.455.668.303 1.183.454 1.544.454.235 0 .444-.112.626-.335.18-.223.27-.497.27-.824l1.607.47zm-4.56 13.974a2.6 2.6 0 0 0 1.418-.396c.42-.265.704-.57.857-.92v-1.596h-1.712c-.647 0-1.136.16-1.466.48-.332.32-.497.713-.497 1.18 0 .382.123.687.37.913.248.226.59.34 1.03.34zM114.13 19.208c0-1.684.47-3.063 1.41-4.138.94-1.075 2.24-1.613 3.903-1.613 1.67 0 2.978.536 3.924 1.607.946 1.072 1.42 2.453 1.42 4.143v.22c0 1.697-.472 3.08-1.414 4.148-.943 1.068-2.246 1.602-3.91 1.602-1.67 0-2.975-.533-3.918-1.602-.942-1.068-1.414-2.45-1.414-4.148v-.22zm3.038.22c0 1.03.18 1.855.543 2.48.362.622.947.933 1.754.933.786 0 1.362-.312 1.728-.937.365-.627.548-1.45.548-2.474v-.22c0-1.003-.185-1.82-.553-2.453-.37-.633-.95-.95-1.743-.95-.786 0-1.362.318-1.728.955s-.548 1.453-.548 2.447v.218z"/></g></svg>