<svg xmlns="http://www.w3.org/2000/svg" width="200" height="35" viewBox="0 0 200 35"><g fill="#212121"><path d="M15.46 19.93l.022.062c.028 1.62-.466 2.89-1.482 3.81-1.016.918-2.418 1.377-4.206 1.377-1.823 0-3.295-.587-4.415-1.76-1.12-1.172-1.68-2.687-1.68-4.545V15.86c0-1.852.545-3.367 1.638-4.546 1.092-1.18 2.526-1.77 4.3-1.77 1.85 0 3.298.453 4.342 1.358 1.043.904 1.55 2.178 1.524 3.82l-.02.063h-2.965c0-.974-.236-1.7-.706-2.176s-1.195-.716-2.176-.716c-.912 0-1.623.367-2.134 1.1-.51.735-.767 1.683-.767 2.845v3.036c0 1.17.27 2.123.81 2.86.538.737 1.288 1.105 2.248 1.105.91 0 1.59-.236 2.04-.714.45-.477.674-1.208.674-2.196h2.95zM24.093 24.96a6.448 6.448 0 0 1-.287-.815 5.678 5.678 0 0 1-.172-.876 4.173 4.173 0 0 1-1.242 1.366c-.515.36-1.127.542-1.837.542-1.183 0-2.094-.304-2.734-.913-.64-.608-.96-1.438-.96-2.49 0-1.104.427-1.962 1.28-2.57.852-.61 2.096-.914 3.73-.914h1.713v-.897c0-.542-.143-.963-.428-1.263-.285-.3-.71-.45-1.273-.45-.494 0-.875.12-1.143.36-.27.24-.403.57-.403.987h-2.933l-.02-.063c-.05-.953.366-1.776 1.246-2.468s2.03-1.04 3.45-1.04c1.356 0 2.454.342 3.292 1.024.838.682 1.258 1.66 1.258 2.933v4.665c0 .53.04 1.026.12 1.493.08.467.207.93.38 1.39h-3.037zm-2.787-2.036c.53 0 1.002-.132 1.42-.396s.702-.57.855-.92v-1.596h-1.71c-.647 0-1.136.16-1.466.48s-.496.713-.496 1.18c0 .382.124.687.37.913.247.226.59.34 1.028.34zM28.445 19.406c0-1.78.384-3.218 1.153-4.31.77-1.092 1.853-1.64 3.25-1.64.564 0 1.072.123 1.525.366.452.244.85.592 1.19 1.044V8.678h3.058v16.28h-2.598l-.26-1.387c-.356.522-.777.92-1.264 1.195s-1.043.412-1.67.412c-1.384 0-2.46-.508-3.23-1.523-.77-1.016-1.153-2.358-1.153-4.028v-.22zm3.037.22c0 .988.167 1.766.5 2.332.335.567.878.85 1.63.85.437 0 .82-.087 1.147-.265.326-.178.594-.437.803-.777v-4.812a2.35 2.35 0 0 0-.8-.83 2.124 2.124 0 0 0-1.13-.297c-.746 0-1.29.33-1.634.992s-.518 1.522-.518 2.587v.22zM47.638 24.96a6.448 6.448 0 0 1-.287-.815 5.678 5.678 0 0 1-.17-.876 4.173 4.173 0 0 1-1.243 1.366c-.515.36-1.127.542-1.837.542-1.183 0-2.094-.304-2.734-.913-.64-.608-.96-1.438-.96-2.49 0-1.104.426-1.962 1.28-2.57.85-.61 2.095-.914 3.73-.914h1.712v-.897c0-.542-.143-.963-.428-1.263-.285-.3-.71-.45-1.273-.45-.494 0-.875.12-1.143.36s-.402.57-.402.987H40.95l-.022-.063c-.05-.953.367-1.776 1.247-2.468.88-.692 2.03-1.04 3.45-1.04 1.356 0 2.454.342 3.292 1.024.838.682 1.258 1.66 1.258 2.933v4.665c0 .53.04 1.026.12 1.493.08.467.207.93.38 1.39H47.64zm-2.786-2.036c.53 0 1.002-.132 1.42-.396s.702-.57.855-.92v-1.596h-1.712c-.647 0-1.136.16-1.466.48s-.497.713-.497 1.18c0 .382.124.687.37.913.247.226.59.34 1.03.34zM58.565 21.828c0-.334-.162-.62-.485-.86-.323-.24-.924-.45-1.8-.632-1.322-.265-2.326-.665-3.01-1.2-.686-.536-1.03-1.263-1.03-2.182 0-.967.412-1.792 1.232-2.474.82-.682 1.914-1.023 3.277-1.023 1.425 0 2.568.34 3.427 1.023.86.682 1.27 1.53 1.237 2.546l-.02.063H58.45c0-.454-.146-.822-.438-1.107-.292-.285-.713-.428-1.263-.428-.488 0-.875.122-1.16.365s-.428.542-.428.897c0 .348.148.63.443.85.296.22.896.417 1.8.59 1.385.28 2.417.688 3.095 1.228.678.54 1.018 1.28 1.018 2.228 0 1.017-.435 1.848-1.305 2.495-.87.646-2.018.97-3.444.97-1.504 0-2.692-.38-3.565-1.143s-1.29-1.63-1.247-2.604l.02-.062h2.788c.02.604.22 1.043.595 1.314.377.27.867.407 1.473.407.563 0 .993-.114 1.29-.34.294-.225.442-.532.442-.922zM67.134 10.9v2.767h1.91v2.14h-1.91v5.75c0 .438.092.75.276.94.185.187.426.28.726.28.16 0 .3-.008.417-.025s.254-.047.407-.09l.25 2.203a6.087 6.087 0 0 1-.893.234 5.25 5.25 0 0 1-.944.077c-1.05 0-1.86-.288-2.427-.866-.567-.576-.85-1.49-.85-2.743v-5.76h-1.65v-2.14h1.65V10.9h3.038zM76.86 16.286l-1.116-.03c-.452 0-.825.093-1.117.28a1.787 1.787 0 0 0-.668.794v7.63H70.92V13.666h2.828l.136 1.67c.265-.59.607-1.052 1.028-1.383a2.29 2.29 0 0 1 1.456-.496c.153 0 .294.012.423.037s.26.054.392.09l-.324 2.7zM77.77 19.208c0-1.684.47-3.063 1.408-4.138.94-1.075 2.24-1.613 3.903-1.613 1.67 0 2.98.536 3.925 1.607.946 1.072 1.42 2.453 1.42 4.143v.22c0 1.697-.472 3.08-1.415 4.148s-2.246 1.602-3.91 1.602c-1.668 0-2.975-.533-3.918-1.602s-1.414-2.45-1.414-4.148v-.22zm3.036.22c0 1.03.18 1.855.543 2.48.36.622.945.933 1.752.933.787 0 1.362-.312 1.728-.937.365-.627.548-1.45.548-2.474v-.22c0-1.003-.185-1.82-.553-2.453-.37-.633-.95-.95-1.743-.95-.787 0-1.362.318-1.728.955s-.548 1.453-.548 2.447v.218z"/></g></svg>