<svg xmlns="http://www.w3.org/2000/svg" width="200" height="35" viewBox="0 0 200 35"><g fill="#212121"><path d="M4.064 24.96V9.762h5.302c1.858 0 3.39.593 4.592 1.78 1.204 1.186 1.806 2.707 1.806 4.565v2.516c0 1.864-.602 3.387-1.806 4.566-1.204 1.18-2.734 1.77-4.592 1.77H4.064zm3.048-12.85v10.51h2.254c1.002 0 1.81-.373 2.42-1.12s.92-1.707.92-2.876v-2.536c0-1.162-.307-2.115-.92-2.86s-1.418-1.117-2.42-1.117H7.112zM22.872 25.178c-1.684 0-3-.517-3.945-1.55s-1.42-2.363-1.42-3.992v-.417c0-1.692.46-3.076 1.38-4.155.917-1.08 2.18-1.614 3.787-1.607 1.517 0 2.68.464 3.49 1.394.812.93 1.217 2.18 1.217 3.75v1.577h-6.73l-.03.062c.047.772.282 1.398.703 1.88s1.045.72 1.874.72c.682 0 1.26-.07 1.738-.21.477-.14.97-.35 1.477-.636l.824 1.88c-.452.367-1.064.677-1.837.928a8.21 8.21 0 0 1-2.528.374zm-.2-9.372c-.61 0-1.082.21-1.413.63s-.532.98-.6 1.676l.02.053h3.715v-.23c0-.66-.136-1.18-.407-1.56-.27-.38-.71-.57-1.315-.57zM39.34 19.626c0 1.67-.385 3.013-1.157 4.028s-1.85 1.523-3.235 1.523c-.592 0-1.117-.11-1.576-.328-.46-.22-.852-.542-1.18-.967V29.3h-3.036V13.667H31.9l.18 1.336a3.62 3.62 0 0 1 1.205-1.143c.47-.268 1.018-.402 1.644-.402 1.397 0 2.483.546 3.255 1.64s1.158 2.528 1.158 4.31v.218zm-3.047-.22c0-1.064-.177-1.927-.532-2.588s-.896-.992-1.627-.992c-.46 0-.85.094-1.174.282a2.01 2.01 0 0 0-.768.804v4.947c.188.32.443.562.767.73s.72.25 1.194.25c.738 0 1.28-.29 1.623-.867.344-.577.517-1.36.517-2.348v-.22zM47.878 24.96a6.448 6.448 0 0 1-.287-.815 5.678 5.678 0 0 1-.17-.876 4.173 4.173 0 0 1-1.243 1.366c-.515.36-1.127.542-1.837.542-1.183 0-2.094-.304-2.734-.913-.64-.608-.96-1.438-.96-2.49 0-1.104.426-1.962 1.28-2.57.85-.61 2.095-.914 3.73-.914h1.712v-.897c0-.542-.143-.963-.428-1.263-.285-.3-.71-.45-1.273-.45-.494 0-.875.12-1.143.36s-.402.57-.402.987H41.19l-.022-.063c-.05-.953.367-1.776 1.247-2.468.88-.692 2.03-1.04 3.45-1.04 1.356 0 2.454.342 3.292 1.024.838.682 1.258 1.66 1.258 2.933v4.665c0 .53.04 1.026.12 1.493.08.467.207.93.38 1.39H47.88zm-2.786-2.036c.53 0 1.002-.132 1.42-.396s.702-.57.855-.92v-1.596h-1.712c-.647 0-1.136.16-1.466.48s-.497.713-.497 1.18c0 .382.124.687.37.913.248.226.59.34 1.03.34zM58.638 16.286l-1.117-.03c-.45 0-.824.093-1.116.28a1.787 1.787 0 0 0-.668.794v7.63H52.7V13.666h2.828l.136 1.67c.265-.59.607-1.052 1.028-1.383a2.29 2.29 0 0 1 1.456-.496c.153 0 .294.012.423.037s.26.054.393.09l-.325 2.7zM64.055 10.9v2.767h1.91v2.14h-1.91v5.75c0 .438.092.75.276.94.186.187.427.28.727.28.16 0 .3-.008.417-.025s.254-.047.407-.09l.25 2.203a6.087 6.087 0 0 1-.892.234 5.25 5.25 0 0 1-.944.077c-1.05 0-1.86-.288-2.427-.866-.567-.576-.85-1.49-.85-2.743v-5.76h-1.65v-2.14h1.65V10.9h3.038zM74.502 24.96a6.448 6.448 0 0 1-.287-.815 5.678 5.678 0 0 1-.172-.876 4.173 4.173 0 0 1-1.242 1.366c-.514.36-1.126.542-1.836.542-1.183 0-2.094-.304-2.734-.913-.64-.608-.96-1.438-.96-2.49 0-1.104.426-1.962 1.28-2.57.85-.61 2.095-.914 3.73-.914h1.712v-.897c0-.542-.143-.963-.428-1.263-.285-.3-.71-.45-1.273-.45-.493 0-.874.12-1.142.36-.268.24-.402.57-.402.987h-2.933l-.02-.063c-.05-.953.366-1.776 1.246-2.468s2.03-1.04 3.45-1.04c1.355 0 2.453.342 3.29 1.024.84.682 1.26 1.66 1.26 2.933v4.665c0 .53.04 1.026.12 1.493.08.467.206.93.38 1.39h-3.038zm-2.786-2.036c.53 0 1.002-.132 1.42-.396s.702-.57.855-.92v-1.596h-1.71c-.648 0-1.137.16-1.467.48s-.496.713-.496 1.18c0 .382.124.687.37.913.248.226.59.34 1.03.34zM82.152 13.667l.125 1.492c.362-.543.815-.962 1.362-1.258s1.177-.444 1.894-.444c.724 0 1.343.16 1.857.48.516.32.906.804 1.17 1.45.348-.604.8-1.078 1.357-1.418s1.21-.512 1.962-.512c1.112 0 1.99.395 2.634 1.185.643.79.965 1.995.965 3.617v6.7h-3.05v-6.71c0-.905-.138-1.535-.416-1.89-.278-.354-.692-.532-1.242-.532-.432 0-.806.096-1.122.287-.317.19-.57.458-.757.798 0 .132.003.246.01.34.008.093.01.188.01.286v7.42h-3.036v-6.712c0-.883-.14-1.508-.417-1.874-.278-.365-.696-.548-1.252-.548-.41 0-.77.08-1.08.235-.31.158-.565.378-.767.664v8.235h-3.036V13.666h2.828zM102.713 25.178c-1.684 0-3-.517-3.945-1.55s-1.42-2.363-1.42-3.992v-.417c0-1.692.46-3.076 1.38-4.155.917-1.08 2.18-1.614 3.787-1.607 1.517 0 2.68.464 3.49 1.394.812.93 1.217 2.18 1.217 3.75v1.577h-6.73l-.032.062c.048.772.283 1.398.704 1.88s1.046.72 1.874.72c.682 0 1.26-.07 1.737-.21.477-.14.97-.35 1.477-.636l.825 1.88c-.453.367-1.065.677-1.837.928a8.2 8.2 0 0 1-2.527.374zm-.198-9.372c-.612 0-1.084.21-1.414.63-.33.422-.53.98-.6 1.676l.022.053h3.716v-.23c0-.66-.136-1.18-.407-1.56-.27-.38-.71-.57-1.315-.57zM111.782 13.667l.136 1.618a4.14 4.14 0 0 1 1.39-1.347c.55-.32 1.164-.48 1.846-.48 1.142 0 2.032.367 2.672 1.1.64.735.96 1.896.96 3.48v6.92h-3.058V18.05c0-.807-.14-1.38-.423-1.717-.28-.337-.704-.506-1.268-.506-.452 0-.85.085-1.195.256a2.33 2.33 0 0 0-.85.705v8.172h-3.048V13.667h2.838zM124.714 10.9v2.767h1.91v2.14h-1.91v5.75c0 .438.092.75.276.94.184.187.426.28.725.28.16 0 .3-.008.418-.025s.254-.047.407-.09l.25 2.203a6.075 6.075 0 0 1-.892.234c-.29.052-.604.077-.945.077-1.05 0-1.86-.288-2.426-.866-.567-.576-.85-1.49-.85-2.743v-5.76h-1.65v-2.14h1.65V10.9h3.037zM128.032 19.208c0-1.684.47-3.063 1.41-4.138.938-1.075 2.24-1.613 3.902-1.613 1.67 0 2.978.536 3.924 1.607.946 1.072 1.42 2.453 1.42 4.143v.22c0 1.697-.472 3.08-1.414 4.148-.943 1.068-2.246 1.602-3.91 1.602-1.67 0-2.975-.533-3.918-1.602-.942-1.068-1.414-2.45-1.414-4.148v-.22zm3.037.22c0 1.03.18 1.855.542 2.48.36.622.946.933 1.753.933.786 0 1.362-.312 1.728-.937.365-.627.548-1.45.548-2.474v-.22c0-1.003-.184-1.82-.552-2.453-.37-.633-.95-.95-1.743-.95-.786 0-1.362.318-1.728.955s-.548 1.453-.548 2.447v.218zM146.673 21.828c0-.334-.162-.62-.485-.86s-.924-.45-1.8-.632c-1.322-.265-2.326-.665-3.012-1.2-.686-.536-1.027-1.263-1.027-2.182 0-.967.41-1.792 1.23-2.474.82-.682 1.913-1.023 3.276-1.023 1.427 0 2.57.34 3.43 1.023.858.682 1.27 1.53 1.236 2.546l-.02.063h-2.944c0-.454-.146-.822-.438-1.107-.293-.285-.714-.428-1.264-.428-.486 0-.873.122-1.158.365s-.428.542-.428.897c0 .348.147.63.443.85s.896.417 1.8.59c1.385.28 2.417.688 3.096 1.228.677.54 1.017 1.28 1.017 2.228 0 1.017-.436 1.848-1.305 2.495-.87.646-2.02.97-3.444.97-1.503 0-2.69-.38-3.564-1.143s-1.29-1.63-1.247-2.604l.02-.062h2.788c.02.604.22 1.043.595 1.314s.866.407 1.472.407c.563 0 .993-.114 1.29-.34.293-.225.44-.532.44-.922z"/></g></svg>