<svg xmlns="http://www.w3.org/2000/svg" width="200" height="35" viewBox="0 0 200 35"><g fill="#212121"><path d="M12.748 18.28H7.112v4.34h6.7v2.34H4.064V9.762h9.727v2.348H7.113v3.82h5.636v2.35zM18.51 13.667l.135 1.618a4.127 4.127 0 0 1 1.388-1.347 3.6 3.6 0 0 1 1.847-.48c1.14 0 2.032.367 2.672 1.1.64.735.96 1.896.96 3.48v6.92h-3.058V18.05c0-.807-.14-1.38-.423-1.717s-.704-.506-1.267-.506c-.453 0-.85.085-1.195.256a2.33 2.33 0 0 0-.85.705v8.172H15.67V13.667h2.84zM31.868 20.753l.2 1.044h.062l.208-1.044 1.858-7.086h3.183L33.537 24.96h-2.912l-3.84-11.293h3.182l1.9 7.086zM41.908 10.963H38.86V8.678h3.048v2.285zm0 13.996H38.86V13.666h3.048V24.96zM43.943 19.208c0-1.684.47-3.063 1.41-4.138.938-1.075 2.24-1.613 3.902-1.613 1.67 0 2.978.536 3.924 1.607.945 1.072 1.418 2.453 1.418 4.143v.22c0 1.697-.47 3.08-1.414 4.148s-2.246 1.602-3.91 1.602c-1.668 0-2.975-.533-3.918-1.602s-1.414-2.45-1.414-4.148v-.22zm3.037.22c0 1.03.18 1.855.543 2.48.36.622.946.933 1.753.933.787 0 1.362-.312 1.728-.937.365-.627.548-1.45.548-2.474v-.22c0-1.003-.185-1.82-.553-2.453-.37-.633-.95-.95-1.744-.95-.787 0-1.362.318-1.728.955s-.548 1.453-.548 2.447v.218zM61.33 19.406c0-1.78.385-3.218 1.154-4.31.77-1.092 1.853-1.64 3.25-1.64.564 0 1.072.123 1.525.366.45.244.848.592 1.19 1.044V8.678h3.057v16.28h-2.6l-.26-1.387c-.355.522-.776.92-1.263 1.195-.487.275-1.043.412-1.67.412-1.384 0-2.46-.508-3.23-1.523-.77-1.016-1.153-2.358-1.153-4.028v-.22zm3.038.22c0 .988.167 1.766.5 2.332.335.567.878.85 1.63.85.437 0 .82-.087 1.147-.265.327-.178.595-.437.804-.777v-4.812a2.35 2.35 0 0 0-.8-.83 2.124 2.124 0 0 0-1.132-.297c-.745 0-1.29.33-1.633.992s-.517 1.522-.517 2.587v.22zM73.396 19.208c0-1.684.47-3.063 1.41-4.138.938-1.075 2.24-1.613 3.902-1.613 1.67 0 2.978.536 3.924 1.607.946 1.072 1.42 2.453 1.42 4.143v.22c0 1.697-.472 3.08-1.415 4.148s-2.246 1.602-3.91 1.602c-1.668 0-2.975-.533-3.918-1.602s-1.415-2.45-1.415-4.148v-.22zm3.037.22c0 1.03.18 1.855.543 2.48.36.622.946.933 1.753.933.786 0 1.36-.312 1.727-.937.365-.627.548-1.45.548-2.474v-.22c0-1.003-.185-1.82-.553-2.453-.37-.633-.95-.95-1.743-.95-.788 0-1.363.318-1.73.955s-.547 1.453-.547 2.447v.218zM101.44 19.626c0 1.67-.387 3.013-1.16 4.028s-1.85 1.523-3.234 1.523c-.592 0-1.117-.11-1.576-.328-.46-.22-.852-.542-1.18-.967V29.3h-3.036V13.667H94l.177 1.336a3.62 3.62 0 0 1 1.206-1.143c.47-.268 1.018-.402 1.644-.402 1.398 0 2.484.546 3.256 1.64s1.158 2.528 1.158 4.31v.218zm-3.048-.22c0-1.064-.177-1.927-.532-2.588s-.897-.992-1.628-.992c-.46 0-.85.094-1.174.282a2.01 2.01 0 0 0-.767.804v4.947c.19.32.444.562.768.73s.722.25 1.195.25c.738 0 1.28-.29 1.623-.867.344-.577.517-1.36.517-2.348v-.22zM108.213 25.178c-1.684 0-3-.517-3.944-1.55-.948-1.033-1.42-2.363-1.42-3.992v-.417c0-1.692.458-3.076 1.377-4.155.918-1.08 2.18-1.614 3.788-1.607 1.517 0 2.68.464 3.49 1.394.812.93 1.217 2.18 1.217 3.75v1.577h-6.73l-.032.062c.05.772.283 1.398.704 1.88s1.046.72 1.874.72c.682 0 1.26-.07 1.737-.21.477-.14.97-.35 1.477-.636l.825 1.88c-.453.367-1.065.677-1.837.928a8.2 8.2 0 0 1-2.527.374zm-.198-9.372c-.612 0-1.084.21-1.414.63s-.53.98-.6 1.676l.022.053h3.716v-.23c0-.66-.136-1.18-.407-1.56-.27-.38-.71-.57-1.315-.57zM114.026 19.406c0-1.78.385-3.218 1.153-4.31s1.852-1.64 3.25-1.64c.563 0 1.07.123 1.523.366.452.244.85.592 1.19 1.044V8.678h3.058v16.28h-2.598l-.26-1.387c-.356.522-.777.92-1.264 1.195s-1.044.412-1.67.412c-1.385 0-2.462-.508-3.23-1.523s-1.153-2.358-1.153-4.028v-.22zm3.037.22c0 .988.167 1.766.5 2.332.335.567.878.85 1.63.85.437 0 .82-.087 1.147-.265s.595-.437.804-.777v-4.812a2.36 2.36 0 0 0-.8-.83 2.124 2.124 0 0 0-1.13-.297c-.746 0-1.29.33-1.635.992s-.518 1.522-.518 2.587v.22zM129.765 10.963h-3.048V8.678h3.048v2.285zm0 13.996h-3.048V13.666h3.048V24.96zM131.8 19.406c0-1.78.385-3.218 1.153-4.31s1.853-1.64 3.25-1.64c.564 0 1.072.123 1.524.366.452.244.85.592 1.19 1.044V8.678h3.058v16.28h-2.6l-.26-1.387c-.355.522-.776.92-1.263 1.195-.487.275-1.044.412-1.67.412-1.385 0-2.462-.508-3.23-1.523s-1.153-2.358-1.153-4.028v-.22zm3.037.22c0 .988.167 1.766.5 2.332.335.567.878.85 1.63.85.437 0 .82-.087 1.147-.265s.595-.437.804-.777v-4.812a2.36 2.36 0 0 0-.8-.83 2.124 2.124 0 0 0-1.13-.297c-.746 0-1.29.33-1.635.992s-.517 1.522-.517 2.587v.22zM143.865 19.208c0-1.684.47-3.063 1.41-4.138.938-1.075 2.24-1.613 3.902-1.613 1.67 0 2.978.536 3.924 1.607.947 1.072 1.42 2.453 1.42 4.143v.22c0 1.697-.47 3.08-1.413 4.148-.943 1.068-2.246 1.602-3.91 1.602-1.67 0-2.975-.533-3.918-1.602-.943-1.068-1.415-2.45-1.415-4.148v-.22zm3.037.22c0 1.03.18 1.855.543 2.48.36.622.946.933 1.753.933.786 0 1.362-.312 1.728-.937.365-.627.548-1.45.548-2.474v-.22c0-1.003-.185-1.82-.553-2.453-.368-.633-.95-.95-1.742-.95-.786 0-1.362.318-1.728.955s-.548 1.453-.548 2.447v.218z"/></g></svg>