<svg xmlns="http://www.w3.org/2000/svg" width="200" height="35" viewBox="0 0 200 35"><g fill="#212121"><path d="M12.946 18.645H7.112v6.314H4.064V9.762h9.946v2.348H7.112v4.186h5.834v2.35zM22.026 24.96a6.448 6.448 0 0 1-.287-.815 5.678 5.678 0 0 1-.173-.876 4.173 4.173 0 0 1-1.242 1.366c-.515.36-1.127.542-1.837.542-1.183 0-2.094-.304-2.734-.913-.64-.608-.96-1.438-.96-2.49 0-1.104.426-1.962 1.28-2.57.85-.61 2.095-.914 3.73-.914h1.712v-.897c0-.542-.143-.963-.428-1.263-.285-.3-.71-.45-1.273-.45-.494 0-.875.12-1.143.36s-.402.57-.402.987h-2.933l-.02-.063c-.05-.953.366-1.776 1.246-2.468s2.03-1.04 3.45-1.04c1.356 0 2.454.342 3.292 1.024.838.682 1.258 1.66 1.258 2.933v4.665c0 .53.04 1.026.12 1.493.08.467.207.93.38 1.39h-3.037zm-2.786-2.036c.53 0 1.002-.132 1.42-.396s.702-.57.855-.92v-1.596h-1.712c-.647 0-1.136.16-1.466.48s-.496.713-.496 1.18c0 .382.125.687.372.913.246.226.59.34 1.028.34zM29.676 13.667l.125 1.492c.363-.543.816-.962 1.363-1.258s1.178-.444 1.895-.444c.724 0 1.343.16 1.857.48.515.32.905.804 1.17 1.45.347-.604.8-1.078 1.356-1.418s1.212-.512 1.963-.512c1.113 0 1.99.395 2.635 1.185.643.79.965 1.995.965 3.617v6.7h-3.048v-6.71c0-.905-.14-1.535-.417-1.89-.278-.354-.692-.532-1.242-.532-.432 0-.806.096-1.122.287-.317.19-.57.458-.757.798 0 .132.003.246.01.34.008.093.01.188.01.286v7.42h-3.036v-6.712c0-.883-.138-1.508-.416-1.874-.278-.365-.696-.548-1.252-.548-.41 0-.77.08-1.08.235-.31.158-.565.378-.767.664v8.235h-3.037V13.666h2.828zM48.608 24.96H45.56V13.666h3.048V24.96zM47.7 9.063h3.393l.02.063-2.89 2.713h-2.6l2.078-2.776zM54.412 24.96h-3.047V8.677h3.047v16.28zM60.12 10.963h-3.046V8.678h3.047v2.285zm0 13.996h-3.046V13.666h3.047V24.96zM69.284 24.96a6.448 6.448 0 0 1-.287-.815 5.678 5.678 0 0 1-.172-.876 4.173 4.173 0 0 1-1.242 1.366c-.515.36-1.127.542-1.837.542-1.183 0-2.094-.304-2.734-.913-.64-.608-.96-1.438-.96-2.49 0-1.104.426-1.962 1.28-2.57.85-.61 2.095-.914 3.73-.914h1.712v-.897c0-.542-.143-.963-.428-1.263-.285-.3-.71-.45-1.273-.45-.494 0-.875.12-1.143.36s-.402.57-.402.987h-2.933l-.02-.063c-.05-.953.366-1.776 1.246-2.468s2.03-1.04 3.45-1.04c1.357 0 2.455.342 3.293 1.024.838.682 1.258 1.66 1.258 2.933v4.665c0 .53.04 1.026.12 1.493.08.467.208.93.382 1.39h-3.038zm-2.786-2.036c.53 0 1.002-.132 1.42-.396s.702-.57.855-.92v-1.596H67.06c-.646 0-1.135.16-1.465.48s-.496.713-.496 1.18c0 .382.123.687.37.913.246.226.59.34 1.028.34zM80.21 21.828c0-.334-.16-.62-.484-.86-.323-.24-.924-.45-1.8-.632-1.322-.265-2.326-.665-3.01-1.2-.686-.536-1.03-1.263-1.03-2.182 0-.967.412-1.792 1.232-2.474.82-.682 1.914-1.023 3.277-1.023 1.426 0 2.57.34 3.428 1.023.86.682 1.27 1.53 1.237 2.546l-.02.064h-2.943c0-.453-.146-.82-.438-1.106-.293-.285-.714-.428-1.264-.428-.487 0-.874.122-1.16.365s-.427.543-.427.898c0 .348.147.63.442.85.296.22.896.417 1.8.59 1.385.28 2.417.688 3.095 1.228.678.54 1.018 1.28 1.018 2.228 0 1.017-.435 1.848-1.305 2.495-.87.645-2.018.97-3.444.97-1.503 0-2.69-.382-3.564-1.144s-1.29-1.63-1.247-2.604l.02-.063h2.788c.02.603.22 1.042.595 1.313.376.27.866.407 1.472.407.563 0 .993-.113 1.29-.34.293-.225.44-.532.44-.922z"/></g></svg>