<svg xmlns="http://www.w3.org/2000/svg" width="200" height="35" viewBox="0 0 200 35"><g fill="#212121"><path d="M12.946 18.645H7.112v6.314H4.064V9.762h9.946v2.348H7.112v4.186h5.834v2.35zM22.026 24.96a6.448 6.448 0 0 1-.287-.815 5.678 5.678 0 0 1-.173-.876 4.173 4.173 0 0 1-1.242 1.366c-.515.36-1.127.542-1.837.542-1.183 0-2.094-.304-2.734-.913-.64-.608-.96-1.438-.96-2.49 0-1.104.426-1.962 1.28-2.57.85-.61 2.095-.914 3.73-.914h1.712v-.897c0-.542-.143-.963-.428-1.263-.285-.3-.71-.45-1.273-.45-.494 0-.875.12-1.143.36s-.402.57-.402.987h-2.933l-.02-.063c-.05-.953.366-1.776 1.246-2.468s2.03-1.04 3.45-1.04c1.356 0 2.454.342 3.292 1.024.838.682 1.258 1.66 1.258 2.933v4.665c0 .53.04 1.026.12 1.493.08.467.207.93.38 1.39h-3.037zm-2.786-2.036c.53 0 1.002-.132 1.42-.396s.702-.57.855-.92v-1.596h-1.712c-.647 0-1.136.16-1.466.48s-.496.713-.496 1.18c0 .382.125.687.372.913.246.226.59.34 1.028.34zM30.052 24.96h-3.047V8.677h3.047v16.28zM37.452 25.178c-1.684 0-3-.517-3.945-1.55s-1.42-2.363-1.42-3.992v-.417c0-1.692.46-3.076 1.38-4.155.917-1.08 2.18-1.614 3.787-1.607 1.517 0 2.68.464 3.49 1.394.812.93 1.217 2.18 1.217 3.75v1.577h-6.73l-.03.062c.047.772.282 1.398.703 1.88s1.045.72 1.874.72c.682 0 1.26-.07 1.738-.21.477-.14.97-.35 1.477-.636l.824 1.88c-.452.367-1.064.677-1.837.928a8.204 8.204 0 0 1-2.528.374zm-.2-9.372c-.61 0-1.082.21-1.413.63s-.532.98-.6 1.676l.02.053h3.715v-.23c0-.66-.136-1.18-.407-1.56-.27-.38-.71-.57-1.315-.57zM53.775 22.84c.53 0 .95-.157 1.263-.475.313-.316.47-.74.47-1.268h2.775l.02.063c.03 1.14-.395 2.096-1.272 2.864-.875.77-1.96 1.153-3.255 1.153-1.67 0-2.96-.533-3.872-1.602s-1.367-2.434-1.367-4.097v-.313c0-1.656.454-3.022 1.362-4.097.908-1.075 2.193-1.613 3.856-1.613 1.378 0 2.488.396 3.33 1.19.842.793 1.25 1.837 1.22 3.13l-.02.064h-2.776c0-.585-.155-1.07-.464-1.457s-.74-.58-1.29-.58c-.785 0-1.343.315-1.674.945s-.496 1.435-.496 2.417v.313c0 1.002.165 1.813.496 2.432.33.62.895.93 1.695.93zM59.61 19.208c0-1.684.47-3.063 1.408-4.138.94-1.075 2.24-1.613 3.903-1.613 1.67 0 2.98.536 3.925 1.607.946 1.072 1.42 2.453 1.42 4.143v.22c0 1.697-.472 3.08-1.415 4.148s-2.246 1.602-3.91 1.602c-1.668 0-2.975-.533-3.918-1.602s-1.414-2.45-1.414-4.148v-.22zm3.036.22c0 1.03.18 1.855.543 2.48.36.622.945.933 1.752.933.787 0 1.362-.312 1.728-.937.365-.627.548-1.45.548-2.474v-.22c0-1.003-.185-1.82-.553-2.453-.37-.633-.95-.95-1.743-.95-.787 0-1.362.318-1.728.955s-.548 1.453-.548 2.447v.218zM74.93 13.667l.136 1.618a4.127 4.127 0 0 1 1.388-1.347 3.6 3.6 0 0 1 1.847-.48c1.142 0 2.033.367 2.673 1.1.64.735.96 1.896.96 3.48v6.92h-3.058V18.05c0-.807-.14-1.38-.423-1.717s-.705-.506-1.268-.506c-.453 0-.85.085-1.195.256a2.33 2.33 0 0 0-.852.705v8.172H72.09V13.667h2.84zM83.74 19.208c0-1.684.47-3.063 1.408-4.138.94-1.075 2.24-1.613 3.903-1.613 1.67 0 2.98.536 3.925 1.607.946 1.072 1.42 2.453 1.42 4.143v.22c0 1.697-.472 3.08-1.415 4.148s-2.246 1.602-3.91 1.602c-1.668 0-2.975-.533-3.918-1.602s-1.414-2.45-1.414-4.148v-.22zm3.036.22c0 1.03.18 1.855.543 2.48.36.622.945.933 1.752.933.787 0 1.362-.312 1.728-.937.365-.627.548-1.45.548-2.474v-.22c0-1.003-.185-1.82-.553-2.453-.37-.633-.95-.95-1.743-.95-.787 0-1.362.318-1.728.955s-.548 1.453-.548 2.447v.218zM102.38 21.828c0-.334-.163-.62-.486-.86s-.924-.45-1.8-.632c-1.322-.265-2.326-.665-3.01-1.2-.686-.536-1.03-1.263-1.03-2.182 0-.967.412-1.792 1.232-2.474.82-.682 1.914-1.023 3.277-1.023 1.426 0 2.57.34 3.428 1.023.86.682 1.272 1.53 1.238 2.546l-.02.063h-2.944c0-.454-.146-.822-.438-1.107-.293-.285-.714-.428-1.263-.428-.487 0-.874.122-1.16.365s-.427.542-.427.897c0 .348.148.63.443.85.295.22.895.417 1.8.59 1.384.28 2.416.688 3.095 1.228.678.54 1.018 1.28 1.018 2.228 0 1.017-.436 1.848-1.305 2.495-.87.646-2.02.97-3.444.97-1.503 0-2.69-.38-3.564-1.143s-1.29-1.63-1.247-2.604l.02-.062h2.788c.022.604.22 1.043.596 1.314.376.27.866.407 1.472.407.563 0 .993-.114 1.29-.34.293-.225.44-.532.44-.922zM112.013 22.84c.528 0 .95-.157 1.263-.475.313-.316.47-.74.47-1.268h2.776l.02.063c.028 1.14-.395 2.096-1.272 2.864-.877.77-1.962 1.153-3.256 1.153-1.67 0-2.96-.533-3.872-1.602-.912-1.068-1.367-2.434-1.367-4.097v-.313c0-1.656.454-3.022 1.36-4.097.91-1.075 2.194-1.613 3.857-1.613 1.378 0 2.487.396 3.33 1.19.84.793 1.248 1.837 1.22 3.13l-.02.064h-2.776c0-.585-.155-1.07-.465-1.457s-.738-.58-1.288-.58c-.786 0-1.345.315-1.675.945-.33.63-.496 1.435-.496 2.417v.313c0 1.002.166 1.813.497 2.432.33.62.895.93 1.696.93zM117.847 19.208c0-1.684.47-3.063 1.41-4.138.938-1.075 2.24-1.613 3.902-1.613 1.67 0 2.977.536 3.923 1.607.946 1.072 1.42 2.453 1.42 4.143v.22c0 1.697-.472 3.08-1.414 4.148-.944 1.068-2.247 1.602-3.91 1.602-1.67 0-2.976-.533-3.92-1.602-.94-1.068-1.413-2.45-1.413-4.148v-.22zm3.037.22c0 1.03.18 1.855.543 2.48.36.622.946.933 1.753.933.786 0 1.362-.312 1.728-.937.365-.627.548-1.45.548-2.474v-.22c0-1.003-.185-1.82-.553-2.453-.37-.633-.95-.95-1.743-.95-.786 0-1.362.318-1.728.955s-.548 1.453-.548 2.447v.218z"/></g></svg>