<svg xmlns="http://www.w3.org/2000/svg" width="200" height="35" viewBox="0 0 200 35"><g fill="#212121"><path d="M15.712 22.882c-.473.62-1.18 1.157-2.12 1.612-.938.456-2.15.684-3.63.684-1.838 0-3.34-.577-4.51-1.732-1.17-1.154-1.753-2.654-1.753-4.498v-3.173c0-1.837.566-3.334 1.7-4.493 1.134-1.16 2.592-1.738 4.373-1.738 1.858 0 3.28.44 4.27 1.32s1.464 2.054 1.43 3.522l-.022.063h-2.87c0-.808-.232-1.436-.698-1.885-.466-.45-1.145-.673-2.035-.673-.933 0-1.684.36-2.254 1.08-.57.72-.856 1.647-.856 2.782v3.193c0 1.148.292 2.084.877 2.808S8.98 22.84 9.96 22.84c.725 0 1.297-.072 1.718-.22s.746-.33.976-.552v-2.943H9.732v-2.108h5.98v5.865zM24.01 16.286l-1.118-.03c-.452 0-.825.093-1.117.28a1.787 1.787 0 0 0-.668.794v7.63H18.07V13.666h2.828l.136 1.67c.265-.59.607-1.052 1.028-1.383a2.29 2.29 0 0 1 1.456-.496c.153 0 .294.012.423.037s.26.054.393.09l-.324 2.7zM32.515 23.29c-.348.604-.79 1.07-1.325 1.397-.536.327-1.16.49-1.868.49-1.19 0-2.12-.403-2.792-1.21-.67-.808-1.007-2.06-1.007-3.758v-6.544h3.037v6.565c0 .988.134 1.665.402 2.03.268.365.684.548 1.247.548.486 0 .904-.078 1.25-.234a2.11 2.11 0 0 0 .857-.694v-8.213h3.048V24.96H32.84l-.325-1.67zM47.847 19.626c0 1.67-.386 3.013-1.158 4.028s-1.852 1.523-3.236 1.523c-.592 0-1.117-.11-1.576-.328-.46-.22-.852-.542-1.18-.967V29.3h-3.036V13.667h2.745l.178 1.336a3.62 3.62 0 0 1 1.206-1.143c.47-.268 1.02-.402 1.645-.402 1.398 0 2.484.546 3.256 1.64s1.16 2.528 1.16 4.31v.218zm-3.048-.22c0-1.064-.178-1.927-.533-2.588s-.897-.992-1.628-.992c-.46 0-.852.094-1.175.282a2.01 2.01 0 0 0-.767.804v4.947c.188.32.443.562.767.73s.722.25 1.195.25c.738 0 1.28-.29 1.623-.867.344-.577.517-1.36.517-2.348v-.22zM49.256 19.208c0-1.684.47-3.063 1.41-4.138.938-1.075 2.24-1.613 3.902-1.613 1.67 0 2.978.536 3.924 1.607.946 1.072 1.42 2.453 1.42 4.143v.22c0 1.697-.472 3.08-1.415 4.148s-2.246 1.602-3.91 1.602c-1.668 0-2.975-.533-3.918-1.602s-1.415-2.45-1.415-4.148v-.22zm3.037.22c0 1.03.18 1.855.543 2.48.36.622.946.933 1.753.933.786 0 1.36-.312 1.727-.937.365-.627.548-1.45.548-2.474v-.22c0-1.003-.185-1.82-.553-2.453-.37-.633-.95-.95-1.743-.95-.788 0-1.363.318-1.73.955s-.547 1.453-.547 2.447v.218zM67.896 21.828c0-.334-.162-.62-.485-.86-.322-.24-.923-.45-1.8-.632-1.32-.265-2.325-.665-3.01-1.2-.685-.536-1.028-1.263-1.028-2.182 0-.967.41-1.792 1.23-2.474.822-.682 1.915-1.023 3.278-1.023 1.426 0 2.57.34 3.428 1.023.86.682 1.27 1.53 1.237 2.546l-.02.063H67.78c0-.454-.145-.822-.437-1.107-.292-.285-.713-.428-1.263-.428-.487 0-.874.122-1.16.365s-.427.542-.427.897c0 .348.148.63.443.85.296.22.896.417 1.8.59 1.385.28 2.417.688 3.095 1.228.68.54 1.02 1.28 1.02 2.228 0 1.017-.436 1.848-1.306 2.495-.87.646-2.018.97-3.444.97-1.503 0-2.69-.38-3.564-1.143s-1.29-1.63-1.247-2.604l.02-.062h2.787c.02.604.22 1.043.595 1.314.376.27.866.407 1.472.407.563 0 .993-.114 1.29-.34.294-.225.442-.532.442-.922z"/></g></svg>