<svg xmlns="http://www.w3.org/2000/svg" width="200" height="35" viewBox="0 0 200 35"><g fill="#212121"><path d="M15.712 22.882c-.473.62-1.18 1.157-2.12 1.612-.938.456-2.15.684-3.63.684-1.838 0-3.34-.577-4.51-1.732-1.17-1.154-1.753-2.654-1.753-4.498v-3.173c0-1.837.566-3.334 1.7-4.493 1.134-1.16 2.592-1.738 4.373-1.738 1.858 0 3.28.44 4.27 1.32s1.464 2.054 1.43 3.522l-.022.063h-2.87c0-.808-.232-1.436-.698-1.885-.466-.45-1.145-.673-2.035-.673-.933 0-1.684.36-2.254 1.08-.57.72-.856 1.647-.856 2.782v3.193c0 1.148.292 2.084.877 2.808S8.98 22.84 9.96 22.84c.725 0 1.297-.072 1.718-.22s.746-.33.976-.552v-2.943H9.732v-2.108h5.98v5.865zM24.01 16.286l-1.118-.03c-.452 0-.825.093-1.117.28a1.787 1.787 0 0 0-.668.794v7.63H18.07V13.666h2.828l.136 1.67c.265-.59.607-1.052 1.028-1.383a2.29 2.29 0 0 1 1.456-.496c.153 0 .294.012.423.037s.26.054.393.09l-.324 2.7zM28.8 10.963h-3.047V8.678H28.8v2.285zm0 13.996h-3.047V13.666H28.8V24.96zM32.098 24.96v-9.154h-1.68v-2.14h1.68v-1.252c0-1.267.366-2.242 1.096-2.928.73-.685 1.757-1.028 3.08-1.028.256 0 .52.02.787.057.27.04.563.092.883.162l-.26 2.265a15.17 15.17 0 0 0-.486-.073c-.157-.022-.34-.032-.548-.032-.495 0-.87.136-1.123.407s-.38.66-.38 1.17v1.25h2.17v2.14h-2.17v9.154h-3.05zM39.55 24.96v-9.154h-1.68v-2.14h1.68v-1.252c0-1.267.365-2.242 1.095-2.928.73-.685 1.757-1.028 3.08-1.028.256 0 .52.02.787.057.268.04.562.092.882.162l-.26 2.265a15.17 15.17 0 0 0-.486-.073c-.157-.022-.34-.032-.548-.032-.494 0-.868.136-1.122.407s-.38.66-.38 1.17v1.25h2.17v2.14h-2.17v9.154h-3.05zM50.853 25.178c-1.684 0-3-.517-3.945-1.55s-1.42-2.363-1.42-3.992v-.417c0-1.692.46-3.076 1.38-4.155.917-1.08 2.18-1.614 3.787-1.607 1.517 0 2.68.464 3.49 1.394.812.93 1.217 2.18 1.217 3.75v1.577H48.63l-.03.062c.047.772.282 1.398.703 1.88s1.045.72 1.874.72c.682 0 1.26-.07 1.738-.21.477-.14.97-.35 1.477-.636l.824 1.88c-.452.367-1.064.677-1.837.928a8.198 8.198 0 0 1-2.527.374zm-.2-9.372c-.61 0-1.082.21-1.413.63s-.53.98-.6 1.676l.02.053h3.716v-.23c0-.66-.136-1.18-.407-1.56-.272-.38-.71-.57-1.316-.57zM63.24 21.828c0-.334-.16-.62-.484-.86-.323-.24-.924-.45-1.8-.632-1.322-.265-2.326-.665-3.01-1.2-.686-.536-1.03-1.263-1.03-2.182 0-.967.412-1.792 1.232-2.474.82-.682 1.914-1.023 3.277-1.023 1.426 0 2.57.34 3.428 1.023.86.682 1.27 1.53 1.237 2.546l-.02.064h-2.943c0-.453-.146-.82-.438-1.106-.293-.285-.714-.428-1.264-.428-.487 0-.874.122-1.16.365s-.427.543-.427.898c0 .348.147.63.442.85.296.22.896.417 1.8.59 1.385.28 2.417.688 3.095 1.228.678.54 1.018 1.28 1.018 2.228 0 1.017-.435 1.848-1.305 2.495-.87.645-2.018.97-3.444.97-1.503 0-2.69-.382-3.564-1.144s-1.29-1.63-1.247-2.604l.02-.063h2.788c.02.603.22 1.042.595 1.313.376.27.866.407 1.472.407.563 0 .993-.113 1.29-.34.293-.225.44-.532.44-.922z"/></g></svg>