<svg xmlns="http://www.w3.org/2000/svg" width="200" height="35" viewBox="0 0 200 35"><g fill="#212121"><path d="M7.32 24.96H4.274V9.762H7.32V24.96zM12.894 13.667l.136 1.618a4.127 4.127 0 0 1 1.388-1.347 3.6 3.6 0 0 1 1.847-.48c1.14 0 2.032.367 2.672 1.1.64.735.96 1.896.96 3.48v6.92H16.84V18.05c0-.807-.142-1.38-.424-1.717s-.705-.506-1.268-.506c-.453 0-.85.085-1.195.256a2.33 2.33 0 0 0-.85.705v8.172h-3.048V13.667h2.84zM21.703 19.406c0-1.78.384-3.218 1.153-4.31.77-1.092 1.853-1.64 3.25-1.64.564 0 1.072.123 1.525.366.453.244.85.592 1.19 1.044V8.678h3.06v16.28h-2.6l-.26-1.387c-.356.522-.777.92-1.264 1.195s-1.043.412-1.67.412c-1.384 0-2.46-.508-3.23-1.523-.77-1.016-1.153-2.358-1.153-4.028v-.22zm3.037.22c0 .988.167 1.766.5 2.332.335.567.878.85 1.63.85.437 0 .82-.087 1.147-.265.327-.178.595-.437.804-.777v-4.812a2.35 2.35 0 0 0-.798-.83 2.124 2.124 0 0 0-1.132-.297c-.745 0-1.29.33-1.633.992s-.517 1.522-.517 2.587v.22zM37.44 10.963h-3.046V8.678h3.047v2.285zm0 13.996h-3.046V13.666h3.047V24.96zM39.477 19.406c0-1.78.384-3.218 1.153-4.31.77-1.092 1.853-1.64 3.25-1.64.627 0 1.177.14 1.65.414s.88.67 1.22 1.185l.283-1.388h2.588V29.3h-3.046v-5.395c-.334.417-.726.733-1.174.95s-.962.322-1.54.322c-1.384 0-2.46-.508-3.23-1.523-.77-1.016-1.153-2.358-1.153-4.028v-.22zm3.037.22c0 .988.167 1.77.5 2.348.335.578.878.866 1.63.866.444 0 .827-.083 1.147-.25.32-.167.582-.41.784-.73v-5.01a2.147 2.147 0 0 0-.778-.772c-.316-.18-.694-.27-1.132-.27-.745 0-1.29.333-1.633 1-.343.668-.516 1.534-.516 2.6v.218zM58.93 23.29c-.347.604-.79 1.07-1.324 1.397-.536.327-1.16.49-1.868.49-1.19 0-2.12-.403-2.792-1.21-.67-.808-1.007-2.06-1.007-3.758v-6.544h3.036v6.565c0 .988.134 1.665.402 2.03.268.365.684.548 1.247.548.487 0 .905-.078 1.252-.234a2.11 2.11 0 0 0 .856-.694v-8.213h3.048V24.96h-2.525l-.324-1.67zM68.97 25.178c-1.683 0-2.998-.517-3.944-1.55s-1.42-2.363-1.42-3.992v-.417c0-1.692.46-3.076 1.38-4.155.917-1.08 2.18-1.614 3.787-1.607 1.517 0 2.68.464 3.49 1.394.812.93 1.217 2.18 1.217 3.75v1.577h-6.73l-.032.062c.048.772.283 1.398.704 1.88s1.045.72 1.874.72c.682 0 1.26-.07 1.738-.21.477-.14.97-.35 1.477-.636l.825 1.88c-.452.367-1.064.677-1.837.928a8.204 8.204 0 0 1-2.527.374zm-.198-9.372c-.612 0-1.083.21-1.414.63s-.53.98-.6 1.676l.02.053h3.716v-.23c0-.66-.136-1.18-.407-1.56-.27-.38-.71-.57-1.315-.57zM87.235 24.96a6.448 6.448 0 0 1-.287-.815 5.678 5.678 0 0 1-.172-.876 4.173 4.173 0 0 1-1.242 1.366c-.515.36-1.127.542-1.837.542-1.183 0-2.094-.304-2.734-.913-.64-.608-.96-1.438-.96-2.49 0-1.104.426-1.962 1.28-2.57.85-.61 2.095-.914 3.73-.914h1.712v-.897c0-.542-.143-.963-.428-1.263-.285-.3-.71-.45-1.273-.45-.494 0-.875.12-1.143.36-.267.24-.4.57-.4.987h-2.934l-.02-.063c-.05-.953.366-1.776 1.246-2.468s2.03-1.04 3.45-1.04c1.356 0 2.454.342 3.292 1.024.838.682 1.258 1.66 1.258 2.933v4.665c0 .53.04 1.026.12 1.493.08.467.207.93.38 1.39h-3.037zm-2.786-2.036c.528 0 1-.132 1.418-.396s.703-.57.856-.92v-1.596h-1.712c-.647 0-1.136.16-1.466.48s-.496.713-.496 1.18c0 .382.124.687.37.913.247.226.59.34 1.03.34zM100.584 24.96h-3.047V8.677h3.047v16.28zM102.62 19.208c0-1.684.47-3.063 1.408-4.138.94-1.075 2.24-1.613 3.903-1.613 1.67 0 2.98.536 3.925 1.607.946 1.072 1.42 2.453 1.42 4.143v.22c0 1.697-.472 3.08-1.414 4.148-.942 1.068-2.245 1.602-3.908 1.602-1.67 0-2.976-.533-3.92-1.602-.94-1.068-1.413-2.45-1.413-4.148v-.22zm3.036.22c0 1.03.18 1.855.543 2.48.36.622.945.933 1.752.933.786 0 1.362-.312 1.728-.937.365-.627.548-1.45.548-2.474v-.22c0-1.003-.185-1.82-.553-2.453-.37-.633-.95-.95-1.743-.95-.786 0-1.362.318-1.728.955s-.548 1.453-.548 2.447v.218zM118.44 13.667v11.71c0 1.32-.35 2.343-1.054 3.062-.703.72-1.68 1.08-2.933 1.08-.278 0-.532-.015-.762-.042a6.237 6.237 0 0 1-.73-.136l.147-2.328c.16.042.32.073.48.095.16.02.33.03.512.03.41 0 .726-.145.948-.434s.334-.732.334-1.33v-11.71h3.058zm-.062-2.725h-3.058V8.678h3.058v2.264zM127.48 24.96a6.292 6.292 0 0 1-.287-.815 5.68 5.68 0 0 1-.173-.876 4.173 4.173 0 0 1-1.242 1.366c-.515.36-1.127.542-1.837.542-1.182 0-2.093-.304-2.733-.913-.64-.608-.96-1.438-.96-2.49 0-1.104.427-1.962 1.278-2.57.853-.61 2.097-.914 3.73-.914h1.713v-.897c0-.542-.143-.963-.428-1.263-.286-.3-.71-.45-1.273-.45-.494 0-.875.12-1.144.36-.268.24-.4.57-.4.987h-2.934l-.022-.063c-.05-.953.366-1.776 1.247-2.468.88-.692 2.03-1.04 3.45-1.04 1.355 0 2.453.342 3.292 1.024.838.682 1.257 1.66 1.257 2.933v4.665c0 .53.04 1.026.12 1.493.08.467.207.93.38 1.39h-3.035zm-2.788-2.036a2.6 2.6 0 0 0 1.42-.396c.417-.265.702-.57.855-.92v-1.596h-1.712c-.647 0-1.136.16-1.466.48-.332.32-.497.713-.497 1.18 0 .382.123.687.37.913.248.226.59.34 1.03.34z"/></g></svg>