<svg xmlns="http://www.w3.org/2000/svg" width="200" height="35" viewBox="0 0 200 35"><g fill="#212121"><path d="M7.112 22.62h6.805v2.34H4.064V9.762h3.048V22.62zM22.37 24.96a6.448 6.448 0 0 1-.286-.815 5.678 5.678 0 0 1-.172-.876 4.173 4.173 0 0 1-1.242 1.366c-.515.36-1.127.542-1.837.542-1.183 0-2.094-.304-2.734-.913-.64-.608-.96-1.438-.96-2.49 0-1.104.425-1.962 1.278-2.57.852-.61 2.096-.914 3.73-.914h1.713v-.897c0-.542-.142-.963-.427-1.263-.285-.3-.71-.45-1.273-.45-.494 0-.875.12-1.143.36s-.402.57-.402.987h-2.933l-.02-.063c-.05-.953.366-1.776 1.246-2.468s2.03-1.04 3.45-1.04c1.356 0 2.454.342 3.292 1.024.838.682 1.258 1.66 1.258 2.933v4.665c0 .53.04 1.026.12 1.493.08.467.207.93.38 1.39h-3.037zm-2.786-2.036c.53 0 1.002-.132 1.42-.396s.702-.57.855-.92v-1.596h-1.713c-.647 0-1.136.16-1.466.48s-.495.713-.495 1.18c0 .382.124.687.37.913.248.226.59.34 1.03.34zM29.98 13.667l.135 1.618a4.127 4.127 0 0 1 1.388-1.347 3.6 3.6 0 0 1 1.847-.48c1.14 0 2.032.367 2.672 1.1.64.735.96 1.896.96 3.48v6.92h-3.058V18.05c0-.807-.14-1.38-.423-1.717s-.704-.506-1.267-.506c-.453 0-.85.085-1.195.256a2.33 2.33 0 0 0-.85.705v8.172H27.14V13.667h2.84zM43.975 22.84c.53 0 .95-.157 1.263-.475.313-.316.47-.74.47-1.268h2.775l.02.063c.03 1.14-.395 2.096-1.272 2.864-.875.77-1.96 1.153-3.255 1.153-1.67 0-2.96-.533-3.872-1.602s-1.367-2.434-1.367-4.097v-.313c0-1.656.454-3.022 1.362-4.097.908-1.075 2.193-1.613 3.856-1.613 1.378 0 2.488.396 3.33 1.19.842.793 1.25 1.837 1.22 3.13l-.02.064h-2.776c0-.585-.155-1.07-.464-1.457s-.74-.58-1.29-.58c-.785 0-1.343.315-1.674.945s-.496 1.435-.496 2.417v.313c0 1.002.165 1.813.496 2.432.33.62.894.93 1.695.93zm1.075 2.077l-.115.595a2.1 2.1 0 0 1 1.117.543c.3.285.45.706.45 1.263 0 .745-.32 1.34-.956 1.785s-1.54.668-2.708.668l-.073-1.68c.355 0 .637-.07.845-.214.21-.143.313-.36.313-.652 0-.285-.11-.485-.334-.6-.224-.115-.606-.19-1.15-.225l.325-1.483h2.285zM56.938 24.96a6.448 6.448 0 0 1-.287-.815 5.678 5.678 0 0 1-.17-.876 4.173 4.173 0 0 1-1.243 1.366c-.515.36-1.127.542-1.837.542-1.183 0-2.094-.304-2.734-.913-.64-.608-.96-1.438-.96-2.49 0-1.104.426-1.962 1.28-2.57.85-.61 2.095-.914 3.73-.914h1.712v-.897c0-.542-.143-.963-.428-1.263-.285-.3-.71-.45-1.273-.45-.494 0-.875.12-1.143.36s-.402.57-.402.987H50.25l-.022-.063c-.05-.953.367-1.776 1.247-2.468.88-.692 2.03-1.04 3.45-1.04 1.356 0 2.454.342 3.292 1.024.838.682 1.258 1.66 1.258 2.933v4.665c0 .53.04 1.026.12 1.493.08.467.207.93.38 1.39H56.94zm-2.787-2.036c.53 0 1.003-.132 1.42-.396s.703-.57.856-.92v-1.596h-1.712c-.647 0-1.136.16-1.466.48s-.496.713-.496 1.18c0 .382.124.687.37.913.248.226.59.34 1.03.34zM64.587 13.667l.125 1.492c.362-.543.815-.962 1.362-1.258s1.178-.444 1.895-.444c.723 0 1.342.16 1.856.48.515.32.905.804 1.17 1.45.347-.604.8-1.078 1.356-1.418s1.21-.512 1.962-.512c1.113 0 1.99.395 2.635 1.185.642.79.964 1.995.964 3.617v6.7h-3.048v-6.71c0-.905-.14-1.535-.417-1.89-.28-.354-.693-.532-1.243-.532-.432 0-.806.096-1.122.287-.317.19-.57.458-.757.798 0 .132.003.246.01.34.008.093.01.188.01.286v7.42h-3.036v-6.712c0-.883-.14-1.508-.417-1.874-.278-.365-.696-.548-1.252-.548-.41 0-.77.08-1.08.235-.31.158-.565.378-.767.664v8.235H61.76V13.666h2.827zM85.148 25.178c-1.684 0-3-.517-3.945-1.55s-1.42-2.363-1.42-3.992v-.417c0-1.692.46-3.076 1.38-4.155.917-1.08 2.18-1.614 3.787-1.607 1.517 0 2.68.464 3.49 1.394.812.93 1.217 2.18 1.217 3.75v1.577h-6.73l-.032.062c.048.772.283 1.398.704 1.88s1.044.72 1.873.72c.682 0 1.26-.07 1.738-.21.478-.14.97-.35 1.478-.636l.824 1.88c-.452.367-1.064.677-1.837.928a8.21 8.21 0 0 1-2.527.374zm-.2-9.372c-.61 0-1.082.21-1.413.63s-.53.98-.6 1.676l.02.053h3.716v-.23c0-.66-.135-1.18-.406-1.56-.27-.38-.71-.57-1.315-.57zM94.217 13.667l.136 1.618a4.127 4.127 0 0 1 1.388-1.347 3.6 3.6 0 0 1 1.848-.48c1.14 0 2.032.367 2.672 1.1.64.735.96 1.896.96 3.48v6.92h-3.058V18.05c0-.807-.14-1.38-.423-1.717s-.706-.506-1.27-.506c-.452 0-.85.085-1.194.256a2.33 2.33 0 0 0-.85.705v8.172h-3.048V13.667h2.84zM107.15 10.9v2.767h1.908v2.14h-1.91v5.75c0 .438.093.75.277.94.184.187.426.28.725.28.16 0 .3-.008.418-.025s.254-.047.407-.09l.25 2.203a6.075 6.075 0 0 1-.892.234c-.29.052-.604.077-.945.077-1.05 0-1.86-.288-2.426-.866-.567-.576-.85-1.49-.85-2.743v-5.76h-1.65v-2.14h1.65V10.9h3.037zM110.468 19.208c0-1.684.47-3.063 1.41-4.138.938-1.075 2.24-1.613 3.902-1.613 1.67 0 2.978.536 3.924 1.607.946 1.072 1.42 2.453 1.42 4.143v.22c0 1.697-.472 3.08-1.414 4.148-.943 1.068-2.246 1.602-3.91 1.602-1.67 0-2.975-.533-3.918-1.602-.942-1.068-1.414-2.45-1.414-4.148v-.22zm3.037.22c0 1.03.18 1.855.543 2.48.36.622.946.933 1.753.933.787 0 1.363-.312 1.73-.937.364-.627.547-1.45.547-2.474v-.22c0-1.003-.185-1.82-.553-2.453-.37-.633-.95-.95-1.743-.95-.785 0-1.36.318-1.727.955s-.548 1.453-.548 2.447v.218z"/></g></svg>