<svg xmlns="http://www.w3.org/2000/svg" width="200" height="35" viewBox="0 0 200 35"><g fill="#212121"><path d="M7.112 22.62h6.805v2.34H4.064V9.762h3.048V22.62zM18.916 10.963H15.87V8.678h3.046v2.285zm0 13.996H15.87V13.666h3.046V24.96zM24.208 13.667l.136 1.618a4.127 4.127 0 0 1 1.388-1.347 3.6 3.6 0 0 1 1.847-.48c1.14 0 2.03.367 2.67 1.1.64.735.96 1.896.96 3.48v6.92h-3.057V18.05c0-.807-.14-1.38-.423-1.717s-.705-.506-1.268-.506c-.453 0-.85.085-1.195.256a2.33 2.33 0 0 0-.85.705v8.172h-3.048V13.667h2.838zM36.46 15.096c.354-.515.79-.917 1.305-1.206a3.435 3.435 0 0 1 1.71-.433c1.177 0 2.1.392 2.772 1.174s1.007 1.993 1.007 3.628v6.7h-3.048v-6.722c0-.876-.14-1.497-.423-1.863-.282-.365-.704-.548-1.268-.548-.466 0-.87.075-1.216.225-.345.15-.626.364-.84.642v8.266h-3.05V8.678h3.05v6.418zM52.21 24.96a6.448 6.448 0 0 1-.288-.815 5.678 5.678 0 0 1-.172-.876 4.173 4.173 0 0 1-1.242 1.366c-.515.36-1.127.542-1.837.542-1.182 0-2.093-.304-2.733-.913-.64-.608-.96-1.438-.96-2.49 0-1.104.426-1.962 1.28-2.57.85-.61 2.095-.914 3.73-.914H51.7v-.897c0-.542-.144-.963-.43-1.263-.284-.3-.708-.45-1.272-.45-.494 0-.875.12-1.143.36s-.402.57-.402.987H45.52l-.02-.063c-.05-.953.366-1.776 1.246-2.468s2.03-1.04 3.45-1.04c1.356 0 2.454.342 3.292 1.024.838.682 1.258 1.66 1.258 2.933v4.665c0 .53.04 1.026.12 1.493.08.467.207.93.38 1.39H52.21zm-2.787-2.036c.53 0 1.002-.132 1.42-.396s.702-.57.855-.92v-1.596h-1.712c-.647 0-1.136.16-1.466.48s-.496.713-.496 1.18c0 .382.124.687.37.913.248.226.59.34 1.03.34zM63.137 21.828c0-.334-.162-.62-.485-.86-.323-.24-.924-.45-1.8-.632-1.322-.265-2.326-.665-3.01-1.2-.686-.536-1.03-1.263-1.03-2.182 0-.967.412-1.792 1.232-2.474.82-.682 1.914-1.023 3.277-1.023 1.427 0 2.57.34 3.43 1.023.858.682 1.27 1.53 1.236 2.546l-.02.063H63.02c0-.454-.146-.822-.438-1.107-.292-.285-.713-.428-1.263-.428-.486 0-.873.122-1.158.365s-.428.542-.428.897c0 .348.148.63.443.85.296.22.896.417 1.8.59 1.385.28 2.417.688 3.095 1.228.678.54 1.018 1.28 1.018 2.228 0 1.017-.435 1.848-1.305 2.495-.87.646-2.018.97-3.444.97-1.502 0-2.69-.38-3.563-1.143s-1.29-1.63-1.247-2.604l.02-.062h2.788c.02.604.22 1.043.595 1.314.376.27.866.407 1.472.407.563 0 .993-.114 1.29-.34.294-.225.442-.532.442-.922z"/></g></svg>