<svg xmlns="http://www.w3.org/2000/svg" width="200" height="35" viewBox="0 0 200 35"><g fill="#212121"><path d="M11.923 20.962h.063l3.904-11.2h3.976V24.96H16.82V14.584l-.064-.01L13 24.958h-2.067L7.175 14.553l-.063.01V24.96H4.064V9.762h3.998l3.86 11.2zM29.092 24.96a6.448 6.448 0 0 1-.287-.815 5.678 5.678 0 0 1-.172-.876 4.173 4.173 0 0 1-1.242 1.366c-.514.36-1.126.542-1.836.542-1.183 0-2.094-.304-2.734-.913-.64-.608-.96-1.438-.96-2.49 0-1.104.426-1.962 1.28-2.57.85-.61 2.095-.914 3.73-.914h1.712v-.897c0-.542-.143-.963-.428-1.263-.285-.3-.71-.45-1.273-.45-.493 0-.874.12-1.142.36-.268.24-.402.57-.402.987h-2.933l-.02-.063c-.05-.953.366-1.776 1.246-2.468s2.03-1.04 3.45-1.04c1.355 0 2.453.342 3.29 1.024.84.682 1.26 1.66 1.26 2.933v4.665c0 .53.04 1.026.12 1.493.08.467.206.93.38 1.39h-3.038zm-2.787-2.036c.53 0 1.002-.132 1.42-.396s.702-.57.855-.92v-1.596h-1.712c-.647 0-1.136.16-1.466.48s-.496.713-.496 1.18c0 .382.124.687.37.913.248.226.59.34 1.03.34zM39.852 16.286l-1.117-.03c-.452 0-.825.093-1.117.28a1.787 1.787 0 0 0-.668.794v7.63h-3.037V13.666h2.828l.137 1.67c.265-.59.607-1.052 1.028-1.383a2.29 2.29 0 0 1 1.456-.496c.154 0 .295.012.424.037s.26.054.392.09l-.324 2.7zM45.958 22.84c.53 0 .95-.157 1.263-.475.314-.316.47-.74.47-1.268h2.776l.02.063c.03 1.14-.395 2.096-1.272 2.864-.876.77-1.962 1.153-3.256 1.153-1.67 0-2.96-.533-3.872-1.602s-1.367-2.434-1.367-4.097v-.313c0-1.656.453-3.022 1.36-4.097.91-1.075 2.194-1.613 3.857-1.613 1.378 0 2.488.396 3.33 1.19.842.793 1.25 1.837 1.22 3.13l-.02.064H47.69c0-.585-.155-1.07-.464-1.457s-.74-.58-1.29-.58c-.785 0-1.343.315-1.674.945s-.496 1.435-.496 2.417v.313c0 1.002.165 1.813.496 2.432.33.62.895.93 1.696.93zM58.92 24.96a6.448 6.448 0 0 1-.287-.815 5.678 5.678 0 0 1-.172-.876 4.173 4.173 0 0 1-1.24 1.366c-.516.36-1.128.542-1.838.542-1.183 0-2.094-.304-2.734-.913-.64-.608-.96-1.438-.96-2.49 0-1.104.426-1.962 1.28-2.57.85-.61 2.095-.914 3.73-.914h1.712v-.897c0-.542-.143-.963-.428-1.263-.285-.3-.71-.45-1.273-.45-.495 0-.876.12-1.144.36-.268.24-.402.57-.402.987H52.23l-.02-.063c-.05-.953.366-1.776 1.246-2.468s2.03-1.04 3.45-1.04c1.356 0 2.454.342 3.292 1.024.838.682 1.258 1.66 1.258 2.933v4.665c0 .53.04 1.026.12 1.493.08.467.207.93.38 1.39H58.92zm-2.786-2.036c.53 0 1.002-.132 1.42-.396s.702-.57.855-.92v-1.596h-1.713c-.647 0-1.136.16-1.466.48s-.495.713-.495 1.18c0 .382.124.687.37.913.248.226.59.34 1.03.34zM69.848 21.828c0-.334-.162-.62-.485-.86-.323-.24-.924-.45-1.8-.632-1.322-.265-2.326-.665-3.01-1.2-.686-.536-1.03-1.263-1.03-2.182 0-.967.412-1.792 1.232-2.474.82-.682 1.914-1.023 3.277-1.023 1.426 0 2.57.34 3.428 1.023.86.682 1.27 1.53 1.237 2.546l-.02.063h-2.944c0-.454-.146-.822-.438-1.107-.292-.285-.713-.428-1.263-.428-.487 0-.874.122-1.16.365s-.427.542-.427.897c0 .348.148.63.443.85.296.22.896.417 1.8.59 1.385.28 2.417.688 3.095 1.228.678.54 1.018 1.28 1.018 2.228 0 1.017-.434 1.848-1.304 2.495-.87.646-2.018.97-3.444.97-1.503 0-2.69-.38-3.564-1.143s-1.29-1.63-1.247-2.604l.022-.062h2.787c.02.604.218 1.043.594 1.314.376.27.866.407 1.472.407.563 0 .993-.114 1.29-.34.294-.225.442-.532.442-.922z"/></g></svg>