<svg xmlns="http://www.w3.org/2000/svg" width="200" height="35" viewBox="0 0 200 35"><g fill="#212121"><path d="M11.502 20.356h.057l3.558-10.207h3.624V24h-2.777v-9.455l-.057-.01L12.481 24h-1.883l-3.425-9.484-.057.01V24H4.339V10.15h3.643l3.52 10.206zM24.001 11.244h-2.778V9.161h2.778v2.083zm0 12.756h-2.778V13.708h2.778V24zM28.824 13.708l.124 1.474a3.766 3.766 0 0 1 1.265-1.227 3.281 3.281 0 0 1 1.684-.438c1.04 0 1.852.334 2.436 1.003.583.669.875 1.727.875 3.172V24H32.42v-6.297c0-.736-.128-1.257-.385-1.565s-.642-.461-1.156-.461c-.413 0-.775.078-1.089.233a2.118 2.118 0 0 0-.775.642V24h-2.777V13.708h2.586zM39.992 15.011c.324-.469.72-.836 1.189-1.099a3.135 3.135 0 0 1 1.56-.395c1.071 0 1.914.356 2.525 1.07.612.713.918 1.815.918 3.306V24h-2.778v-6.125c0-.799-.128-1.365-.385-1.698s-.642-.5-1.156-.5c-.425 0-.794.068-1.108.205a1.927 1.927 0 0 0-.766.585V24h-2.777V9.161h2.777v5.85zM54.347 24a5.835 5.835 0 0 1-.261-.742 5.156 5.156 0 0 1-.157-.799 3.798 3.798 0 0 1-1.132 1.246c-.469.33-1.027.495-1.674.495-1.078 0-1.909-.277-2.492-.833-.583-.555-.875-1.311-.875-2.269 0-1.008.389-1.79 1.166-2.345s1.911-.832 3.401-.832h1.56v-.818c0-.495-.13-.878-.39-1.151-.26-.272-.647-.409-1.161-.409-.45 0-.797.109-1.042.328s-.366.518-.366.899H48.25l-.019-.057c-.044-.869.334-1.619 1.137-2.25.802-.631 1.85-.946 3.144-.946 1.237 0 2.237.311 3.001.932s1.146 1.513 1.146 2.673v4.252c0 .481.036.936.109 1.36.073.425.188.847.347 1.265h-2.768zm-2.54-1.854a2.37 2.37 0 0 0 1.293-.361c.381-.241.641-.521.78-.838v-1.455h-1.56c-.59 0-1.036.146-1.336.438a1.44 1.44 0 0 0-.452 1.075c0 .349.113.626.338.832s.538.309.937.309zM74.19 19.415l.019.058c.025 1.478-.425 2.635-1.351 3.472-.926.837-2.204 1.256-3.833 1.256-1.662 0-3.003-.534-4.024-1.604-1.021-1.068-1.531-2.449-1.531-4.143v-2.749c0-1.687.498-3.068 1.493-4.143.996-1.075 2.302-1.612 3.919-1.612 1.687 0 3.006.413 3.957 1.237.952.824 1.415 1.985 1.389 3.481l-.019.057h-2.702c0-.888-.214-1.549-.642-1.983-.428-.434-1.089-.651-1.983-.651-.831 0-1.479.334-1.945 1.003s-.699 1.533-.699 2.592v2.768c0 1.065.246 1.935.737 2.606.491.673 1.175 1.009 2.05 1.009.831 0 1.451-.218 1.86-.651.409-.435.614-1.103.614-2.003h2.691zM75.56 18.759c0-1.535.428-2.792 1.284-3.771.856-.98 2.042-1.47 3.558-1.47 1.522 0 2.714.488 3.577 1.465.862.977 1.293 2.235 1.293 3.776v.2c0 1.547-.43 2.808-1.289 3.781-.859.973-2.047 1.46-3.563 1.46-1.522 0-2.713-.487-3.572-1.46-.859-.974-1.289-2.234-1.289-3.781v-.2zm2.769.2c0 .938.165 1.691.495 2.259.33.567.862.852 1.598.852.716 0 1.241-.285 1.574-.856.333-.57.5-1.322.5-2.254v-.2c0-.913-.168-1.658-.504-2.235s-.866-.866-1.588-.866c-.717 0-1.242.291-1.575.871s-.499 1.324-.499 2.23v.199zM89.525 13.708l.124 1.474a3.766 3.766 0 0 1 1.265-1.227 3.281 3.281 0 0 1 1.684-.438c1.04 0 1.852.334 2.436 1.003.583.669.875 1.727.875 3.172V24h-2.787v-6.297c0-.736-.128-1.257-.385-1.565s-.642-.461-1.156-.461c-.413 0-.775.078-1.089.233a2.118 2.118 0 0 0-.775.642V24H86.94V13.708h2.585zM101.311 11.187v2.521h1.741v1.95h-1.741V20.9c0 .399.084.685.252.855.168.172.389.257.661.257.146 0 .273-.008.381-.023s.231-.043.371-.081l.229 2.008a5.733 5.733 0 0 1-.813.214 4.918 4.918 0 0 1-.861.071c-.957 0-1.694-.264-2.211-.79s-.775-1.36-.775-2.502v-5.25H97.04v-1.95h1.503v-2.521h2.768zM110.833 24a5.686 5.686 0 0 1-.262-.742 5.156 5.156 0 0 1-.157-.799 3.798 3.798 0 0 1-1.132 1.246c-.47.33-1.027.495-1.674.495-1.079 0-1.909-.277-2.493-.833-.583-.555-.875-1.311-.875-2.269 0-1.008.389-1.79 1.166-2.345.776-.555 1.91-.832 3.4-.832h1.56v-.818c0-.495-.13-.878-.39-1.151-.26-.272-.646-.409-1.16-.409-.451 0-.798.109-1.042.328s-.366.518-.366.899h-2.673l-.02-.057c-.044-.869.335-1.619 1.137-2.25.803-.631 1.851-.946 3.145-.946 1.236 0 2.236.311 3.001.932.764.622 1.146 1.513 1.146 2.673v4.252c0 .481.036.936.109 1.36.072.425.188.847.347 1.265h-2.767zm-2.54-1.854c.481 0 .913-.121 1.294-.361.38-.241.641-.521.779-.838v-1.455h-1.56c-.59 0-1.035.146-1.337.438-.301.292-.451.65-.451 1.075 0 .349.112.626.337.832.226.205.539.309.938.309z"/></g></svg>