<svg xmlns="http://www.w3.org/2000/svg" width="200" height="35" viewBox="0 0 200 35"><g fill="#212121"><path d="M16.35 24.96H13.3L7.175 14.71l-.063.01v10.24H4.064V9.762h3.048l6.126 10.24.063-.012V9.764h3.048V24.96zM23.81 25.178c-1.683 0-2.998-.517-3.944-1.55s-1.42-2.363-1.42-3.992v-.417c0-1.692.46-3.076 1.38-4.155.917-1.08 2.18-1.614 3.787-1.607 1.517 0 2.68.464 3.49 1.394.812.93 1.217 2.18 1.217 3.75v1.577h-6.73l-.032.062c.048.772.283 1.398.704 1.88s1.045.72 1.874.72c.682 0 1.26-.07 1.738-.21.477-.14.97-.35 1.477-.636l.825 1.88c-.452.367-1.064.677-1.837.928a8.21 8.21 0 0 1-2.527.374zm-.198-9.372c-.612 0-1.083.21-1.414.63s-.53.98-.6 1.676l.02.053h3.716v-.23c0-.66-.136-1.18-.407-1.56-.27-.38-.71-.57-1.315-.57zM39.915 20.764h.063l1.367-7.097h2.964L41.44 24.96h-2.547l-2.098-6.514h-.063l-2.098 6.513h-2.536l-2.87-11.293h2.964l1.388 7.066h.063l2.108-7.066h2.036l2.13 7.097zM51.928 21.828c0-.334-.162-.62-.485-.86-.323-.24-.924-.45-1.8-.632-1.322-.265-2.326-.665-3.01-1.2-.686-.536-1.03-1.263-1.03-2.182 0-.967.412-1.792 1.232-2.474.82-.682 1.914-1.023 3.277-1.023 1.426 0 2.57.34 3.428 1.023.86.682 1.27 1.53 1.237 2.546l-.02.063h-2.944c0-.454-.146-.822-.438-1.107-.292-.285-.713-.428-1.263-.428-.487 0-.874.122-1.16.365s-.427.542-.427.897c0 .348.148.63.443.85.296.22.896.417 1.8.59 1.385.28 2.417.688 3.095 1.228.678.54 1.018 1.28 1.018 2.228 0 1.017-.434 1.848-1.304 2.495-.87.646-2.018.97-3.444.97-1.503 0-2.69-.38-3.564-1.143s-1.29-1.63-1.247-2.604l.022-.062h2.787c.02.604.218 1.043.594 1.314.376.27.866.407 1.472.407.563 0 .993-.114 1.29-.34.294-.225.442-.532.442-.922zM60.047 24.96H57V8.677h3.047v16.28zM67.447 25.178c-1.684 0-3-.517-3.945-1.55s-1.42-2.363-1.42-3.992v-.417c0-1.692.46-3.076 1.38-4.155.917-1.08 2.18-1.614 3.787-1.607 1.516 0 2.68.464 3.49 1.394.81.93 1.216 2.18 1.216 3.75v1.577h-6.73l-.032.062c.048.772.283 1.398.704 1.88s1.045.72 1.874.72c.682 0 1.26-.07 1.738-.21.477-.14.97-.35 1.477-.636l.824 1.88c-.45.367-1.063.677-1.836.928a8.204 8.204 0 0 1-2.527.374zm-.198-9.372c-.613 0-1.084.21-1.415.63s-.53.98-.6 1.676l.02.053h3.716v-.23c0-.66-.135-1.18-.406-1.56-.272-.38-.71-.57-1.315-.57zM77.383 10.9v2.767h1.91v2.14h-1.91v5.75c0 .438.092.75.276.94.184.187.425.28.725.28.16 0 .3-.008.417-.025s.254-.047.407-.09l.25 2.203a6.087 6.087 0 0 1-.894.234 5.25 5.25 0 0 1-.944.077c-1.05 0-1.86-.288-2.427-.866-.567-.576-.85-1.49-.85-2.743v-5.76h-1.65v-2.14h1.65V10.9h3.038zM84.824 10.9v2.767h1.91v2.14h-1.91v5.75c0 .438.092.75.276.94.185.187.426.28.726.28.16 0 .3-.008.417-.025s.254-.047.407-.09l.25 2.203a6.087 6.087 0 0 1-.893.234 5.25 5.25 0 0 1-.944.077c-1.05 0-1.86-.288-2.427-.866-.567-.576-.85-1.49-.85-2.743v-5.76h-1.65v-2.14h1.65V10.9h3.038zM93.508 25.178c-1.684 0-3-.517-3.945-1.55s-1.42-2.363-1.42-3.992v-.417c0-1.692.46-3.076 1.38-4.155.917-1.08 2.18-1.614 3.787-1.607 1.517 0 2.68.464 3.49 1.394.812.93 1.217 2.18 1.217 3.75v1.577h-6.73l-.032.062c.048.772.283 1.398.704 1.88s1.044.72 1.873.72c.682 0 1.26-.07 1.738-.21.478-.14.97-.35 1.478-.636l.824 1.88c-.452.367-1.064.677-1.837.928a8.21 8.21 0 0 1-2.527.374zm-.2-9.372c-.61 0-1.082.21-1.413.63s-.53.98-.6 1.676l.02.053h3.716v-.23c0-.66-.135-1.18-.406-1.56-.27-.38-.71-.57-1.315-.57zM105.73 16.286l-1.118-.03c-.452 0-.824.093-1.117.28a1.787 1.787 0 0 0-.668.794v7.63H99.79V13.666h2.83l.135 1.67c.264-.59.606-1.052 1.027-1.383s.906-.496 1.456-.496c.153 0 .294.012.423.037s.26.054.393.09l-.324 2.7z"/></g></svg>