<svg xmlns="http://www.w3.org/2000/svg" width="200" height="35" viewBox="0 0 200 35"><g fill="#212121"><path d="M16.35 24.96H13.3L7.175 14.71l-.063.01v10.24H4.064V9.762h3.048l6.126 10.24.063-.012V9.764h3.048V24.96zM18.446 19.208c0-1.684.47-3.063 1.41-4.138.938-1.075 2.24-1.613 3.902-1.613 1.67 0 2.978.536 3.924 1.607.946 1.072 1.42 2.453 1.42 4.143v.22c0 1.697-.472 3.08-1.415 4.148s-2.246 1.602-3.91 1.602c-1.668 0-2.975-.533-3.918-1.602s-1.415-2.45-1.415-4.148v-.22zm3.037.22c0 1.03.18 1.855.543 2.48.36.622.946.933 1.753.933.786 0 1.36-.312 1.727-.937.365-.627.548-1.45.548-2.474v-.22c0-1.003-.185-1.82-.553-2.453-.37-.633-.95-.95-1.743-.95-.788 0-1.363.318-1.73.955s-.547 1.453-.547 2.447v.218zM34.634 10.9v2.767h1.91v2.14h-1.91v5.75c0 .438.092.75.276.94.185.187.426.28.726.28.16 0 .3-.008.417-.025s.254-.047.407-.09l.25 2.203a6.087 6.087 0 0 1-.893.234 5.25 5.25 0 0 1-.944.077c-1.05 0-1.86-.288-2.427-.866-.567-.576-.85-1.49-.85-2.743v-5.76h-1.65v-2.14h1.65V10.9h3.038zM41.69 24.96H38.64V13.666h3.047V24.96zm-.91-15.896h3.393l.02.063-2.89 2.713h-2.6l2.078-2.776zM49.005 22.84c.53 0 .95-.157 1.263-.475.313-.316.47-.74.47-1.268h2.775l.02.063c.03 1.14-.395 2.096-1.272 2.864-.875.77-1.96 1.153-3.255 1.153-1.67 0-2.96-.533-3.872-1.602s-1.367-2.434-1.367-4.097v-.313c0-1.656.454-3.022 1.362-4.097.908-1.075 2.193-1.613 3.856-1.613 1.378 0 2.488.396 3.33 1.19.842.793 1.25 1.837 1.22 3.13l-.02.064h-2.776c0-.585-.155-1.07-.464-1.457s-.74-.58-1.29-.58c-.785 0-1.343.315-1.674.945s-.496 1.435-.496 2.417v.313c0 1.002.165 1.813.496 2.432.33.62.895.93 1.695.93zM58.513 10.963h-3.047V8.678h3.047v2.285zm0 13.996h-3.047V13.666h3.047V24.96zM67.677 24.96a6.448 6.448 0 0 1-.287-.815 5.678 5.678 0 0 1-.172-.876 4.173 4.173 0 0 1-1.242 1.366c-.515.36-1.127.542-1.837.542-1.184 0-2.095-.304-2.735-.913-.64-.608-.96-1.438-.96-2.49 0-1.104.426-1.962 1.28-2.57.85-.61 2.095-.914 3.73-.914h1.712v-.897c0-.542-.143-.963-.428-1.263-.286-.3-.71-.45-1.274-.45-.494 0-.875.12-1.143.36s-.402.57-.402.987H60.99l-.02-.063c-.05-.953.366-1.776 1.246-2.468s2.03-1.04 3.45-1.04c1.356 0 2.454.342 3.292 1.024.838.682 1.258 1.66 1.258 2.933v4.665c0 .53.04 1.026.12 1.493.08.467.207.93.38 1.39h-3.037zm-2.787-2.036c.53 0 1.002-.132 1.42-.396s.702-.57.855-.92v-1.596h-1.712c-.647 0-1.136.16-1.466.48s-.496.713-.496 1.18c0 .382.125.687.372.913.247.226.59.34 1.028.34zM78.604 21.828c0-.334-.162-.62-.485-.86-.324-.24-.925-.45-1.8-.632-1.323-.265-2.327-.665-3.012-1.2-.685-.536-1.028-1.263-1.028-2.182 0-.967.41-1.792 1.23-2.474.822-.682 1.915-1.023 3.278-1.023 1.426 0 2.57.34 3.428 1.023.86.682 1.27 1.53 1.237 2.546l-.02.063h-2.944c0-.454-.147-.822-.44-1.107-.29-.285-.712-.428-1.262-.428-.487 0-.874.122-1.16.365s-.427.542-.427.897c0 .348.15.63.444.85.296.22.896.417 1.8.59 1.385.28 2.417.688 3.095 1.228.677.54 1.017 1.28 1.017 2.228 0 1.017-.435 1.848-1.305 2.495-.87.646-2.018.97-3.444.97-1.503 0-2.69-.38-3.564-1.143s-1.29-1.63-1.247-2.604l.02-.062h2.788c.02.604.22 1.043.595 1.314.376.27.866.407 1.472.407.563 0 .993-.114 1.29-.34.294-.225.442-.532.442-.922z"/></g></svg>