<svg xmlns="http://www.w3.org/2000/svg" width="200" height="35" viewBox="0 0 200 35"><g fill="#212121"><path d="M7.112 19.448v5.51H4.064V9.764h5.813c1.746 0 3.12.445 4.123 1.336s1.503 2.062 1.503 3.516-.5 2.623-1.503 3.507-2.376 1.325-4.123 1.325H7.112zm0-2.348h2.766c.85 0 1.492-.23 1.93-.694.44-.463.66-1.053.66-1.77 0-.73-.22-1.333-.653-1.81-.435-.477-1.08-.715-1.936-.715H7.11v4.99zM23.394 16.286l-1.117-.03c-.452 0-.825.093-1.117.28a1.787 1.787 0 0 0-.668.794v7.63h-3.037V13.666h2.828l.136 1.67c.264-.59.606-1.052 1.027-1.383a2.29 2.29 0 0 1 1.456-.496c.153 0 .294.012.423.037s.26.054.392.09l-.324 2.7zM24.3 19.208c0-1.684.47-3.063 1.41-4.138.94-1.075 2.24-1.613 3.903-1.613 1.67 0 2.978.536 3.924 1.607.946 1.072 1.42 2.453 1.42 4.143v.22c0 1.697-.472 3.08-1.415 4.148s-2.246 1.602-3.91 1.602c-1.668 0-2.975-.533-3.918-1.602s-1.414-2.45-1.414-4.148v-.22zm3.038.22c0 1.03.18 1.855.543 2.48.362.622.947.933 1.754.933.787 0 1.362-.312 1.728-.937.365-.627.548-1.45.548-2.474v-.22c0-1.003-.185-1.82-.553-2.453-.37-.633-.95-.95-1.743-.95-.787 0-1.362.318-1.728.955s-.548 1.453-.548 2.447v.218zM39.664 13.667l.125 1.492c.36-.543.814-.962 1.36-1.258s1.18-.444 1.896-.444c.724 0 1.343.16 1.857.48.515.32.905.804 1.17 1.45.347-.604.8-1.078 1.356-1.418s1.21-.512 1.96-.512c1.114 0 1.992.395 2.636 1.185.643.79.965 1.995.965 3.617v6.7h-3.047v-6.71c0-.905-.14-1.535-.417-1.89-.278-.354-.692-.532-1.242-.532-.432 0-.806.096-1.122.287-.317.19-.57.458-.757.798 0 .132.003.246.01.34.008.093.01.188.01.286v7.42H43.39v-6.712c0-.883-.14-1.508-.417-1.874-.278-.365-.696-.548-1.252-.548-.41 0-.77.08-1.08.235-.31.158-.564.378-.766.664v8.235h-3.037V13.666h2.827zM54.86 19.208c0-1.684.47-3.063 1.41-4.138.938-1.075 2.24-1.613 3.902-1.613 1.67 0 2.978.536 3.924 1.607.946 1.072 1.42 2.453 1.42 4.143v.22c0 1.697-.472 3.08-1.415 4.148s-2.245 1.602-3.908 1.602c-1.67 0-2.976-.533-3.92-1.602s-1.413-2.45-1.413-4.148v-.22zm3.037.22c0 1.03.18 1.855.543 2.48.36.622.946.933 1.753.933.787 0 1.362-.312 1.728-.937.366-.627.55-1.45.55-2.474v-.22c0-1.003-.186-1.82-.554-2.453-.37-.633-.95-.95-1.743-.95-.787 0-1.362.318-1.728.955s-.548 1.453-.548 2.447v.218zM72.112 22.84c.53 0 .95-.157 1.263-.475.313-.316.47-.74.47-1.268h2.775l.02.063c.03 1.14-.395 2.096-1.272 2.864-.876.77-1.962 1.153-3.256 1.153-1.67 0-2.96-.533-3.872-1.602s-1.367-2.434-1.367-4.097v-.313c0-1.656.454-3.022 1.362-4.097.908-1.075 2.193-1.613 3.856-1.613 1.38 0 2.49.396 3.33 1.19.843.793 1.25 1.837 1.222 3.13l-.02.064h-2.777c0-.585-.155-1.07-.464-1.457s-.738-.58-1.288-.58c-.786 0-1.344.315-1.675.945s-.496 1.435-.496 2.417v.313c0 1.002.166 1.813.497 2.432.33.62.895.93 1.695.93zm1.076 2.077l-.115.595a2.1 2.1 0 0 1 1.117.543c.3.285.45.706.45 1.263 0 .745-.32 1.34-.956 1.785s-1.54.668-2.708.668l-.073-1.68c.355 0 .637-.07.845-.214.21-.143.313-.36.313-.652 0-.285-.11-.485-.333-.6-.223-.115-.605-.19-1.148-.225l.323-1.483h2.285zM77.946 19.208c0-1.684.47-3.063 1.41-4.138.938-1.075 2.24-1.613 3.902-1.613 1.67 0 2.978.536 3.924 1.607.946 1.072 1.42 2.453 1.42 4.143v.22c0 1.697-.472 3.08-1.415 4.148s-2.246 1.602-3.91 1.602c-1.668 0-2.975-.533-3.918-1.602s-1.415-2.45-1.415-4.148v-.22zm9.226-10.26c0 .67-.207 1.238-.62 1.708s-.94.705-1.57.705c-.488 0-1.04-.15-1.655-.453s-1.105-.454-1.466-.454c-.25 0-.458.113-.625.34s-.25.495-.25.808l-1.628-.437c0-.654.207-1.223.62-1.707a1.96 1.96 0 0 1 1.56-.726c.39 0 .918.15 1.586.454.668.303 1.183.454 1.544.454.237 0 .445-.11.626-.334.18-.223.27-.497.27-.824l1.61.47zm-6.19 10.48c0 1.03.182 1.855.544 2.48.36.622.946.933 1.753.933.786 0 1.36-.312 1.727-.937.365-.627.548-1.45.548-2.474v-.22c0-1.003-.185-1.82-.553-2.453-.37-.633-.95-.95-1.743-.95-.788 0-1.363.318-1.73.955s-.547 1.453-.547 2.447v.218zM95.376 25.178c-1.684 0-3-.517-3.945-1.55s-1.418-2.363-1.418-3.992v-.417c0-1.692.46-3.076 1.378-4.155.918-1.08 2.18-1.614 3.788-1.607 1.517 0 2.68.464 3.49 1.394.812.93 1.217 2.18 1.217 3.75v1.577h-6.73l-.032.062c.048.772.283 1.398.704 1.88s1.045.72 1.874.72c.683 0 1.262-.07 1.74-.21.476-.14.968-.35 1.476-.636l.824 1.88c-.452.367-1.064.677-1.837.928a8.21 8.21 0 0 1-2.527.374zm-.2-9.372c-.61 0-1.082.21-1.413.63s-.53.98-.6 1.676l.02.053H96.9v-.23c0-.66-.137-1.18-.408-1.56-.27-.38-.71-.57-1.315-.57zM107.765 21.828c0-.334-.162-.62-.485-.86-.324-.24-.924-.45-1.8-.632-1.323-.265-2.327-.665-3.012-1.2-.686-.536-1.028-1.263-1.028-2.182 0-.967.41-1.792 1.23-2.474.822-.682 1.914-1.023 3.278-1.023 1.426 0 2.57.34 3.43 1.023.858.682 1.27 1.53 1.235 2.546l-.02.063h-2.944c0-.454-.147-.822-.44-1.107s-.712-.428-1.262-.428c-.487 0-.873.122-1.158.365-.286.244-.43.542-.43.897 0 .348.15.63.445.85.295.22.896.417 1.8.59 1.385.28 2.416.688 3.095 1.228.68.54 1.018 1.28 1.018 2.228 0 1.017-.435 1.848-1.305 2.495-.87.646-2.018.97-3.444.97-1.504 0-2.69-.38-3.564-1.143-.874-.762-1.29-1.63-1.248-2.604l.02-.062h2.787c.02.604.22 1.043.596 1.314.376.27.867.407 1.472.407.564 0 .993-.114 1.29-.34.294-.225.443-.532.443-.922z"/></g></svg>