<svg xmlns="http://www.w3.org/2000/svg" width="200" height="35" viewBox="0 0 200 35"><g fill="#212121"><path d="M7.112 19.448v5.51H4.064V9.764h5.813c1.746 0 3.12.445 4.123 1.336s1.503 2.062 1.503 3.516-.5 2.623-1.503 3.507-2.376 1.325-4.123 1.325H7.112zm0-2.348h2.766c.85 0 1.492-.23 1.93-.694.44-.463.66-1.053.66-1.77 0-.73-.22-1.333-.653-1.81-.435-.477-1.08-.715-1.936-.715H7.11v4.99zM23.394 16.286l-1.117-.03c-.452 0-.825.093-1.117.28a1.787 1.787 0 0 0-.668.794v7.63h-3.037V13.666h2.828l.136 1.67c.264-.59.606-1.052 1.027-1.383a2.29 2.29 0 0 1 1.456-.496c.153 0 .294.012.423.037s.26.054.392.09l-.324 2.7zM24.3 19.208c0-1.684.47-3.063 1.41-4.138.94-1.075 2.24-1.613 3.903-1.613 1.67 0 2.978.536 3.924 1.607.946 1.072 1.42 2.453 1.42 4.143v.22c0 1.697-.472 3.08-1.415 4.148s-2.246 1.602-3.91 1.602c-1.668 0-2.975-.533-3.918-1.602s-1.414-2.45-1.414-4.148v-.22zm3.038.22c0 1.03.18 1.855.543 2.48.362.622.947.933 1.754.933.787 0 1.362-.312 1.728-.937.365-.627.548-1.45.548-2.474v-.22c0-1.003-.185-1.82-.553-2.453-.37-.633-.95-.95-1.743-.95-.787 0-1.362.318-1.728.955s-.548 1.453-.548 2.447v.218zM36.366 19.406c0-1.78.384-3.218 1.153-4.31.768-1.092 1.852-1.64 3.25-1.64.563 0 1.07.123 1.524.366.452.244.85.592 1.19 1.044V8.678h3.058v16.28h-2.6l-.26-1.387c-.355.522-.776.92-1.263 1.195-.488.275-1.044.412-1.67.412-1.385 0-2.462-.508-3.23-1.523-.77-1.016-1.154-2.358-1.154-4.028v-.22zm3.037.22c0 .988.167 1.766.5 2.332.335.567.878.85 1.63.85.437 0 .82-.087 1.147-.265.327-.178.595-.437.804-.777v-4.812a2.35 2.35 0 0 0-.8-.83 2.124 2.124 0 0 0-1.13-.297c-.746 0-1.29.33-1.634.992s-.517 1.522-.517 2.587v.22zM55.82 23.29c-.348.604-.79 1.07-1.325 1.397-.536.327-1.16.49-1.868.49-1.19 0-2.12-.403-2.792-1.21-.67-.808-1.007-2.06-1.007-3.758v-6.544h3.037v6.565c0 .988.134 1.665.402 2.03.268.365.684.548 1.247.548.487 0 .905-.078 1.252-.234a2.11 2.11 0 0 0 .856-.694v-8.213h3.048V24.96h-2.526l-.324-1.67zM64.62 10.9v2.767h1.91v2.14h-1.91v5.75c0 .438.09.75.275.94.185.187.426.28.726.28.16 0 .3-.008.418-.025s.254-.047.407-.09l.25 2.203a6.087 6.087 0 0 1-.893.234 5.25 5.25 0 0 1-.944.077c-1.05 0-1.86-.288-2.427-.866-.566-.576-.85-1.49-.85-2.743v-5.76h-1.65v-2.14h1.65V10.9h3.04zM67.938 19.208c0-1.684.47-3.063 1.41-4.138.938-1.075 2.24-1.613 3.902-1.613 1.67 0 2.978.536 3.924 1.607.946 1.072 1.42 2.453 1.42 4.143v.22c0 1.697-.472 3.08-1.415 4.148s-2.247 1.602-3.91 1.602c-1.67 0-2.976-.533-3.92-1.602s-1.413-2.45-1.413-4.148v-.22zm3.037.22c0 1.03.18 1.855.543 2.48.36.622.946.933 1.753.933.788 0 1.363-.312 1.73-.937.364-.627.547-1.45.547-2.474v-.22c0-1.003-.185-1.82-.553-2.453-.37-.633-.95-.95-1.743-.95-.786 0-1.36.318-1.727.955s-.548 1.453-.548 2.447v.218zM86.578 21.828c0-.334-.162-.62-.485-.86-.323-.24-.924-.45-1.8-.632-1.322-.265-2.326-.665-3.01-1.2-.686-.536-1.03-1.263-1.03-2.182 0-.967.412-1.792 1.232-2.474.82-.682 1.914-1.023 3.277-1.023 1.426 0 2.57.34 3.428 1.023.86.682 1.27 1.53 1.237 2.546l-.02.063h-2.944c0-.454-.146-.822-.438-1.107-.292-.285-.713-.428-1.263-.428-.487 0-.874.122-1.16.365s-.427.542-.427.897c0 .348.148.63.443.85.296.22.896.417 1.8.59 1.385.28 2.417.688 3.095 1.228.678.54 1.018 1.28 1.018 2.228 0 1.017-.434 1.848-1.304 2.495-.87.646-2.018.97-3.444.97-1.503 0-2.69-.38-3.564-1.143s-1.29-1.63-1.247-2.604l.022-.062h2.787c.02.604.218 1.043.594 1.314.376.27.866.407 1.472.407.563 0 .993-.114 1.29-.34.294-.225.442-.532.442-.922z"/></g></svg>