<svg xmlns="http://www.w3.org/2000/svg" width="200" height="35" viewBox="0 0 200 35"><g fill="#212121"><path d="M11.986 20.993c0-.585-.203-1.055-.61-1.41s-1.122-.687-2.145-1c-1.752-.53-3.083-1.152-3.99-1.87-.91-.715-1.363-1.693-1.363-2.932 0-1.245.512-2.262 1.535-3.052 1.022-.79 2.327-1.185 3.914-1.185 1.684 0 3.04.424 4.065 1.273 1.027.85 1.523 1.962 1.488 3.34l-.02.062h-2.955c0-.758-.23-1.34-.688-1.75-.46-.406-1.103-.61-1.93-.61-.752 0-1.333.182-1.744.543-.41.363-.615.826-.615 1.39 0 .514.223.937.668 1.267.445.33 1.214.68 2.307 1.05 1.67.473 2.943 1.09 3.82 1.852.876.76 1.315 1.765 1.315 3.01 0 1.302-.508 2.328-1.524 3.08-1.015.75-2.358 1.126-4.027 1.126-1.635 0-3.04-.406-4.21-1.22s-1.742-2.03-1.708-3.644l.02-.063H6.54c0 .896.264 1.558.793 1.982.53.424 1.246.637 2.15.637.814 0 1.435-.172 1.863-.513s.64-.794.64-1.364zM21.943 25.178c-1.684 0-3-.517-3.945-1.55s-1.42-2.363-1.42-3.992v-.417c0-1.692.46-3.076 1.38-4.155.917-1.08 2.18-1.614 3.787-1.607 1.517 0 2.68.464 3.49 1.394.812.93 1.217 2.18 1.217 3.75v1.577H19.72l-.03.062c.047.772.282 1.398.703 1.88s1.045.72 1.874.72c.682 0 1.26-.07 1.738-.21.477-.14.97-.35 1.477-.636l.824 1.88c-.452.367-1.064.677-1.837.928a8.198 8.198 0 0 1-2.527.374zm-.2-9.372c-.61 0-1.082.21-1.413.63s-.53.98-.6 1.676l.02.053h3.716v-.23c0-.66-.136-1.18-.407-1.56-.272-.38-.71-.57-1.316-.57zM35.145 23.29c-.348.604-.79 1.07-1.325 1.397-.536.327-1.16.49-1.868.49-1.19 0-2.12-.403-2.792-1.21-.67-.808-1.007-2.06-1.007-3.758v-6.544h3.037v6.565c0 .988.134 1.665.402 2.03.268.365.684.548 1.247.548.486 0 .904-.078 1.25-.234a2.11 2.11 0 0 0 .857-.694v-8.213h3.048V24.96H35.47l-.325-1.67zM55.8 19.626c0 1.67-.387 3.013-1.16 4.028s-1.85 1.523-3.234 1.523c-.592 0-1.117-.11-1.576-.328-.46-.22-.852-.542-1.18-.967V29.3h-3.036V13.667h2.745l.177 1.336a3.62 3.62 0 0 1 1.206-1.143c.47-.268 1.018-.402 1.644-.402 1.398 0 2.484.546 3.256 1.64s1.158 2.528 1.158 4.31v.218zm-3.048-.22c0-1.064-.177-1.927-.532-2.588s-.897-.992-1.628-.992c-.46 0-.85.094-1.174.282a2.01 2.01 0 0 0-.767.804v4.947c.19.32.444.562.768.73s.722.25 1.195.25c.738 0 1.28-.29 1.623-.867.344-.577.517-1.36.517-2.348v-.22zM62.573 25.178c-1.684 0-3-.517-3.945-1.55s-1.42-2.363-1.42-3.992v-.417c0-1.692.46-3.076 1.38-4.155.917-1.08 2.18-1.614 3.787-1.607 1.517 0 2.68.464 3.49 1.394.812.93 1.217 2.18 1.217 3.75v1.577H60.35l-.03.062c.047.772.282 1.398.703 1.88s1.045.72 1.874.72c.682 0 1.26-.07 1.738-.21.477-.14.97-.35 1.477-.636l.824 1.88c-.452.367-1.064.677-1.837.928a8.193 8.193 0 0 1-2.527.374zm-.198-9.372c-.612 0-1.083.21-1.414.63s-.53.98-.6 1.676l.022.053h3.715v-.23c0-.66-.136-1.18-.407-1.56-.272-.38-.71-.57-1.315-.57zM68.386 19.406c0-1.78.384-3.218 1.153-4.31.768-1.092 1.852-1.64 3.25-1.64.563 0 1.07.123 1.524.366.452.244.85.592 1.19 1.044V8.678h3.058v16.28h-2.6l-.26-1.387c-.355.522-.776.92-1.263 1.195-.488.275-1.044.412-1.67.412-1.385 0-2.462-.508-3.23-1.523-.77-1.016-1.154-2.358-1.154-4.028v-.22zm3.037.22c0 .988.167 1.766.5 2.332.335.567.878.85 1.63.85.437 0 .82-.087 1.147-.265.327-.178.595-.437.804-.777v-4.812a2.35 2.35 0 0 0-.8-.83 2.124 2.124 0 0 0-1.13-.297c-.746 0-1.29.33-1.634.992s-.517 1.522-.517 2.587v.22zM84.125 10.963h-3.047V8.678h3.047v2.285zm0 13.996h-3.047V13.666h3.047V24.96zM86.16 19.406c0-1.78.384-3.218 1.153-4.31.77-1.092 1.853-1.64 3.25-1.64.564 0 1.072.123 1.525.366.452.244.85.592 1.19 1.044V8.678h3.058v16.28h-2.6l-.26-1.387c-.355.522-.776.92-1.263 1.195-.487.275-1.043.412-1.67.412-1.384 0-2.46-.508-3.23-1.523-.77-1.016-1.153-2.358-1.153-4.028v-.22zm3.037.22c0 .988.167 1.766.5 2.332.335.567.878.85 1.63.85.437 0 .82-.087 1.147-.265.327-.178.595-.437.804-.777v-4.812a2.35 2.35 0 0 0-.8-.83 2.124 2.124 0 0 0-1.13-.297c-.746 0-1.29.33-1.634.992s-.517 1.522-.517 2.587v.22zM98.225 19.208c0-1.684.47-3.063 1.41-4.138.938-1.075 2.24-1.613 3.902-1.613 1.67 0 2.98.536 3.925 1.607.946 1.072 1.42 2.453 1.42 4.143v.22c0 1.697-.473 3.08-1.415 4.148s-2.245 1.602-3.908 1.602c-1.67 0-2.978-.533-3.92-1.602s-1.414-2.45-1.414-4.148v-.22zm3.038.22c0 1.03.18 1.855.542 2.48.362.622.946.933 1.754.933.785 0 1.36-.312 1.726-.937.366-.627.55-1.45.55-2.474v-.22c0-1.003-.186-1.82-.555-2.453-.368-.633-.948-.95-1.742-.95-.786 0-1.36.318-1.727.955s-.547 1.453-.547 2.447v.218z"/></g></svg>