<svg xmlns="http://www.w3.org/2000/svg" width="200" height="35" viewBox="0 0 200 35"><g fill="#212121"><path d="M11.986 20.993c0-.585-.203-1.055-.61-1.41s-1.122-.687-2.145-1c-1.752-.53-3.083-1.152-3.99-1.87-.91-.715-1.363-1.693-1.363-2.932 0-1.245.512-2.262 1.535-3.052 1.022-.79 2.327-1.185 3.914-1.185 1.684 0 3.04.424 4.065 1.273 1.027.85 1.523 1.962 1.488 3.34l-.02.062h-2.955c0-.758-.23-1.34-.688-1.75-.46-.406-1.103-.61-1.93-.61-.752 0-1.333.182-1.744.543-.41.363-.615.826-.615 1.39 0 .514.223.937.668 1.267.445.33 1.214.68 2.307 1.05 1.67.473 2.943 1.09 3.82 1.852.876.76 1.315 1.765 1.315 3.01 0 1.302-.508 2.328-1.524 3.08-1.015.75-2.358 1.126-4.027 1.126-1.635 0-3.04-.406-4.21-1.22s-1.742-2.03-1.708-3.644l.02-.063H6.54c0 .896.264 1.558.793 1.982.53.424 1.246.637 2.15.637.814 0 1.435-.172 1.863-.513s.64-.794.64-1.364zM21.943 25.178c-1.684 0-3-.517-3.945-1.55s-1.42-2.363-1.42-3.992v-.417c0-1.692.46-3.076 1.38-4.155.917-1.08 2.18-1.614 3.787-1.607 1.517 0 2.68.464 3.49 1.394.812.93 1.217 2.18 1.217 3.75v1.577H19.72l-.03.062c.047.772.282 1.398.703 1.88s1.045.72 1.874.72c.682 0 1.26-.07 1.738-.21.477-.14.97-.35 1.477-.636l.824 1.88c-.452.367-1.064.677-1.837.928a8.198 8.198 0 0 1-2.527.374zm-.2-9.372c-.61 0-1.082.21-1.413.63s-.53.98-.6 1.676l.02.053h3.716v-.23c0-.66-.136-1.18-.407-1.56-.272-.38-.71-.57-1.316-.57zM32.943 22.84c.53 0 .95-.157 1.263-.475.313-.316.47-.74.47-1.268h2.775l.022.063c.028 1.14-.396 2.096-1.273 2.864-.877.77-1.963 1.153-3.257 1.153-1.67 0-2.96-.533-3.872-1.602s-1.366-2.434-1.366-4.097v-.313c0-1.656.454-3.022 1.362-4.097.908-1.075 2.193-1.613 3.856-1.613 1.378 0 2.488.396 3.33 1.19.842.793 1.25 1.837 1.22 3.13l-.02.064h-2.776c0-.585-.155-1.07-.464-1.457s-.74-.58-1.29-.58c-.785 0-1.343.315-1.674.945s-.496 1.435-.496 2.417v.313c0 1.002.165 1.813.496 2.432.33.62.895.93 1.695.93zm1.075 2.077l-.115.595a2.1 2.1 0 0 1 1.117.543c.3.285.45.706.45 1.263 0 .745-.32 1.34-.956 1.785s-1.54.668-2.708.668l-.073-1.68c.355 0 .637-.07.845-.214.21-.143.313-.36.313-.652 0-.285-.11-.485-.333-.6-.223-.115-.605-.19-1.148-.225l.323-1.483h2.285zM38.777 19.208c0-1.684.47-3.063 1.41-4.138.938-1.075 2.24-1.613 3.902-1.613 1.67 0 2.977.536 3.923 1.607.946 1.072 1.42 2.453 1.42 4.143v.22c0 1.697-.472 3.08-1.415 4.148s-2.246 1.602-3.91 1.602c-1.668 0-2.975-.533-3.918-1.602s-1.414-2.45-1.414-4.148v-.22zm9.226-10.26c0 .67-.207 1.238-.62 1.708s-.94.705-1.57.705c-.488 0-1.04-.15-1.655-.453s-1.105-.454-1.466-.454c-.25 0-.46.113-.626.34s-.25.495-.25.808l-1.628-.437c0-.654.207-1.223.62-1.707.415-.483.935-.725 1.562-.725.39 0 .918.152 1.586.455.668.303 1.183.454 1.544.454.237 0 .445-.112.626-.335.18-.223.27-.497.27-.824l1.607.47zm-6.19 10.48c0 1.03.182 1.855.544 2.48.36.622.946.933 1.753.933.787 0 1.362-.312 1.728-.937.365-.627.548-1.45.548-2.474v-.22c0-1.003-.185-1.82-.553-2.453-.37-.633-.95-.95-1.743-.95-.787 0-1.362.318-1.728.955s-.548 1.453-.548 2.447v.218zM56.207 25.178c-1.684 0-3-.517-3.945-1.55s-1.42-2.363-1.42-3.992v-.417c0-1.692.46-3.076 1.38-4.155.917-1.08 2.18-1.614 3.787-1.607 1.516 0 2.68.464 3.49 1.394.81.93 1.216 2.18 1.216 3.75v1.577h-6.73l-.032.062c.048.772.283 1.398.704 1.88s1.045.72 1.874.72c.682 0 1.26-.07 1.738-.21.477-.14.97-.35 1.477-.636l.824 1.88c-.45.367-1.063.677-1.836.928a8.21 8.21 0 0 1-2.527.374zm-.2-9.372c-.61 0-1.082.21-1.413.63s-.53.98-.6 1.676l.02.053h3.716v-.23c0-.66-.136-1.18-.407-1.56-.27-.38-.71-.57-1.315-.57zM68.595 21.828c0-.334-.162-.62-.485-.86-.323-.24-.924-.45-1.8-.632-1.322-.265-2.326-.665-3.01-1.2-.686-.536-1.03-1.263-1.03-2.182 0-.967.412-1.792 1.232-2.474.82-.682 1.914-1.023 3.277-1.023 1.425 0 2.568.34 3.427 1.023.86.682 1.27 1.53 1.237 2.546l-.02.063H68.48c0-.454-.146-.822-.438-1.107-.292-.285-.713-.428-1.263-.428-.488 0-.875.122-1.16.365s-.428.542-.428.897c0 .348.148.63.443.85.296.22.896.417 1.8.59 1.385.28 2.417.688 3.095 1.228.678.54 1.018 1.28 1.018 2.228 0 1.017-.435 1.848-1.305 2.495-.87.646-2.018.97-3.444.97-1.504 0-2.692-.38-3.565-1.143s-1.29-1.63-1.247-2.604l.02-.062h2.788c.02.604.22 1.043.595 1.314.377.27.867.407 1.473.407.563 0 .993-.114 1.29-.34.294-.225.442-.532.442-.922z"/></g></svg>